<mxfile host="app.diagrams.net" agent="Mozilla/5.0 (Windows NT 10.0; Win64; x64) AppleWebKit/537.36 (KHTML, like Gecko) Chrome/131.0.0.0 Safari/537.36" version="24.8.4">
  <diagram name="Page-1" id="e6TIBDmYMd1l1q2YBbrU">
    <mxGraphModel dx="1195" dy="615" grid="1" gridSize="10" guides="1" tooltips="1" connect="1" arrows="1" fold="1" page="1" pageScale="1" pageWidth="827" pageHeight="1169" math="0" shadow="0">
      <root>
        <mxCell id="0" />
        <mxCell id="1" parent="0" />
        <mxCell id="9NdUksTB03w-y8b6HVBz-41" value="" style="shape=table;startSize=0;container=1;collapsible=0;childLayout=tableLayout;fontSize=16;swimlaneLine=1;" vertex="1" parent="1">
          <mxGeometry x="15" y="30" width="391" height="80" as="geometry" />
        </mxCell>
        <mxCell id="9NdUksTB03w-y8b6HVBz-42" value="" style="shape=tableRow;horizontal=0;startSize=0;swimlaneHead=0;swimlaneBody=0;strokeColor=inherit;top=0;left=0;bottom=0;right=0;collapsible=0;dropTarget=0;fillColor=none;points=[[0,0.5],[1,0.5]];portConstraint=eastwest;fontSize=16;" vertex="1" parent="9NdUksTB03w-y8b6HVBz-41">
          <mxGeometry width="391" height="20" as="geometry" />
        </mxCell>
        <mxCell id="9NdUksTB03w-y8b6HVBz-78" value="C" style="shape=partialRectangle;html=1;whiteSpace=wrap;connectable=0;strokeColor=inherit;overflow=hidden;fillColor=none;top=0;left=0;bottom=0;right=0;pointerEvents=1;fontSize=16;" vertex="1" parent="9NdUksTB03w-y8b6HVBz-42">
          <mxGeometry width="20" height="20" as="geometry">
            <mxRectangle width="20" height="20" as="alternateBounds" />
          </mxGeometry>
        </mxCell>
        <mxCell id="9NdUksTB03w-y8b6HVBz-74" value="H" style="shape=partialRectangle;html=1;whiteSpace=wrap;connectable=0;strokeColor=inherit;overflow=hidden;fillColor=none;top=0;left=0;bottom=0;right=0;pointerEvents=1;fontSize=16;" vertex="1" parent="9NdUksTB03w-y8b6HVBz-42">
          <mxGeometry x="20" width="19" height="20" as="geometry">
            <mxRectangle width="19" height="20" as="alternateBounds" />
          </mxGeometry>
        </mxCell>
        <mxCell id="9NdUksTB03w-y8b6HVBz-70" value=":" style="shape=partialRectangle;html=1;whiteSpace=wrap;connectable=0;strokeColor=inherit;overflow=hidden;fillColor=none;top=0;left=0;bottom=0;right=0;pointerEvents=1;fontSize=16;" vertex="1" parent="9NdUksTB03w-y8b6HVBz-42">
          <mxGeometry x="39" width="19" height="20" as="geometry">
            <mxRectangle width="19" height="20" as="alternateBounds" />
          </mxGeometry>
        </mxCell>
        <mxCell id="9NdUksTB03w-y8b6HVBz-66" value="X" style="shape=partialRectangle;html=1;whiteSpace=wrap;connectable=0;strokeColor=inherit;overflow=hidden;fillColor=none;top=0;left=0;bottom=0;right=0;pointerEvents=1;fontSize=16;" vertex="1" parent="9NdUksTB03w-y8b6HVBz-42">
          <mxGeometry x="58" width="20" height="20" as="geometry">
            <mxRectangle width="20" height="20" as="alternateBounds" />
          </mxGeometry>
        </mxCell>
        <mxCell id="9NdUksTB03w-y8b6HVBz-54" style="shape=partialRectangle;html=1;whiteSpace=wrap;connectable=0;strokeColor=inherit;overflow=hidden;fillColor=none;top=0;left=0;bottom=0;right=0;pointerEvents=1;fontSize=16;" vertex="1" parent="9NdUksTB03w-y8b6HVBz-42">
          <mxGeometry x="78" width="20" height="20" as="geometry">
            <mxRectangle width="20" height="20" as="alternateBounds" />
          </mxGeometry>
        </mxCell>
        <mxCell id="9NdUksTB03w-y8b6HVBz-43" value="" style="shape=partialRectangle;html=1;whiteSpace=wrap;connectable=0;strokeColor=inherit;overflow=hidden;fillColor=none;top=0;left=0;bottom=0;right=0;pointerEvents=1;fontSize=16;" vertex="1" parent="9NdUksTB03w-y8b6HVBz-42">
          <mxGeometry x="98" width="20" height="20" as="geometry">
            <mxRectangle width="20" height="20" as="alternateBounds" />
          </mxGeometry>
        </mxCell>
        <mxCell id="9NdUksTB03w-y8b6HVBz-44" value="" style="shape=partialRectangle;html=1;whiteSpace=wrap;connectable=0;strokeColor=inherit;overflow=hidden;fillColor=none;top=0;left=0;bottom=0;right=0;pointerEvents=1;fontSize=16;" vertex="1" parent="9NdUksTB03w-y8b6HVBz-42">
          <mxGeometry x="118" width="19" height="20" as="geometry">
            <mxRectangle width="19" height="20" as="alternateBounds" />
          </mxGeometry>
        </mxCell>
        <mxCell id="9NdUksTB03w-y8b6HVBz-45" value="" style="shape=partialRectangle;html=1;whiteSpace=wrap;connectable=0;strokeColor=inherit;overflow=hidden;fillColor=none;top=0;left=0;bottom=0;right=0;pointerEvents=1;fontSize=16;" vertex="1" parent="9NdUksTB03w-y8b6HVBz-42">
          <mxGeometry x="137" width="20" height="20" as="geometry">
            <mxRectangle width="20" height="20" as="alternateBounds" />
          </mxGeometry>
        </mxCell>
        <mxCell id="9NdUksTB03w-y8b6HVBz-62" style="shape=partialRectangle;html=1;whiteSpace=wrap;connectable=0;strokeColor=inherit;overflow=hidden;fillColor=none;top=0;left=0;bottom=0;right=0;pointerEvents=1;fontSize=16;" vertex="1" parent="9NdUksTB03w-y8b6HVBz-42">
          <mxGeometry x="157" width="19" height="20" as="geometry">
            <mxRectangle width="19" height="20" as="alternateBounds" />
          </mxGeometry>
        </mxCell>
        <mxCell id="9NdUksTB03w-y8b6HVBz-82" value="4" style="shape=partialRectangle;html=1;whiteSpace=wrap;connectable=0;strokeColor=inherit;overflow=hidden;fillColor=none;top=0;left=0;bottom=0;right=0;pointerEvents=1;fontSize=16;" vertex="1" parent="9NdUksTB03w-y8b6HVBz-42">
          <mxGeometry x="176" width="20" height="20" as="geometry">
            <mxRectangle width="20" height="20" as="alternateBounds" />
          </mxGeometry>
        </mxCell>
        <mxCell id="9NdUksTB03w-y8b6HVBz-86" value="Y" style="shape=partialRectangle;html=1;whiteSpace=wrap;connectable=0;strokeColor=inherit;overflow=hidden;fillColor=none;top=0;left=0;bottom=0;right=0;pointerEvents=1;fontSize=16;" vertex="1" parent="9NdUksTB03w-y8b6HVBz-42">
          <mxGeometry x="196" width="19" height="20" as="geometry">
            <mxRectangle width="19" height="20" as="alternateBounds" />
          </mxGeometry>
        </mxCell>
        <mxCell id="9NdUksTB03w-y8b6HVBz-90" value="Y" style="shape=partialRectangle;html=1;whiteSpace=wrap;connectable=0;strokeColor=inherit;overflow=hidden;fillColor=none;top=0;left=0;bottom=0;right=0;pointerEvents=1;fontSize=16;" vertex="1" parent="9NdUksTB03w-y8b6HVBz-42">
          <mxGeometry x="215" width="20" height="20" as="geometry">
            <mxRectangle width="20" height="20" as="alternateBounds" />
          </mxGeometry>
        </mxCell>
        <mxCell id="9NdUksTB03w-y8b6HVBz-94" value="." style="shape=partialRectangle;html=1;whiteSpace=wrap;connectable=0;strokeColor=inherit;overflow=hidden;fillColor=none;top=0;left=0;bottom=0;right=0;pointerEvents=1;fontSize=16;" vertex="1" parent="9NdUksTB03w-y8b6HVBz-42">
          <mxGeometry x="235" width="19" height="20" as="geometry">
            <mxRectangle width="19" height="20" as="alternateBounds" />
          </mxGeometry>
        </mxCell>
        <mxCell id="9NdUksTB03w-y8b6HVBz-98" value="X" style="shape=partialRectangle;html=1;whiteSpace=wrap;connectable=0;strokeColor=inherit;overflow=hidden;fillColor=none;top=0;left=0;bottom=0;right=0;pointerEvents=1;fontSize=16;" vertex="1" parent="9NdUksTB03w-y8b6HVBz-42">
          <mxGeometry x="254" width="20" height="20" as="geometry">
            <mxRectangle width="20" height="20" as="alternateBounds" />
          </mxGeometry>
        </mxCell>
        <mxCell id="9NdUksTB03w-y8b6HVBz-102" value="X" style="shape=partialRectangle;html=1;whiteSpace=wrap;connectable=0;strokeColor=inherit;overflow=hidden;fillColor=none;top=0;left=0;bottom=0;right=0;pointerEvents=1;fontSize=16;" vertex="1" parent="9NdUksTB03w-y8b6HVBz-42">
          <mxGeometry x="274" width="19" height="20" as="geometry">
            <mxRectangle width="19" height="20" as="alternateBounds" />
          </mxGeometry>
        </mxCell>
        <mxCell id="9NdUksTB03w-y8b6HVBz-106" value="X" style="shape=partialRectangle;html=1;whiteSpace=wrap;connectable=0;strokeColor=inherit;overflow=hidden;fillColor=none;top=0;left=0;bottom=0;right=0;pointerEvents=1;fontSize=16;" vertex="1" parent="9NdUksTB03w-y8b6HVBz-42">
          <mxGeometry x="293" width="20" height="20" as="geometry">
            <mxRectangle width="20" height="20" as="alternateBounds" />
          </mxGeometry>
        </mxCell>
        <mxCell id="9NdUksTB03w-y8b6HVBz-110" value="_" style="shape=partialRectangle;html=1;whiteSpace=wrap;connectable=0;strokeColor=inherit;overflow=hidden;fillColor=none;top=0;left=0;bottom=0;right=0;pointerEvents=1;fontSize=16;" vertex="1" parent="9NdUksTB03w-y8b6HVBz-42">
          <mxGeometry x="313" width="19" height="20" as="geometry">
            <mxRectangle width="19" height="20" as="alternateBounds" />
          </mxGeometry>
        </mxCell>
        <mxCell id="9NdUksTB03w-y8b6HVBz-114" value="X" style="shape=partialRectangle;html=1;whiteSpace=wrap;connectable=0;strokeColor=inherit;overflow=hidden;fillColor=none;top=0;left=0;bottom=0;right=0;pointerEvents=1;fontSize=16;" vertex="1" parent="9NdUksTB03w-y8b6HVBz-42">
          <mxGeometry x="332" width="20" height="20" as="geometry">
            <mxRectangle width="20" height="20" as="alternateBounds" />
          </mxGeometry>
        </mxCell>
        <mxCell id="9NdUksTB03w-y8b6HVBz-118" value="X" style="shape=partialRectangle;html=1;whiteSpace=wrap;connectable=0;strokeColor=inherit;overflow=hidden;fillColor=none;top=0;left=0;bottom=0;right=0;pointerEvents=1;fontSize=16;" vertex="1" parent="9NdUksTB03w-y8b6HVBz-42">
          <mxGeometry x="352" width="19" height="20" as="geometry">
            <mxRectangle width="19" height="20" as="alternateBounds" />
          </mxGeometry>
        </mxCell>
        <mxCell id="9NdUksTB03w-y8b6HVBz-122" value="X" style="shape=partialRectangle;html=1;whiteSpace=wrap;connectable=0;strokeColor=inherit;overflow=hidden;fillColor=none;top=0;left=0;bottom=0;right=0;pointerEvents=1;fontSize=16;" vertex="1" parent="9NdUksTB03w-y8b6HVBz-42">
          <mxGeometry x="371" width="20" height="20" as="geometry">
            <mxRectangle width="20" height="20" as="alternateBounds" />
          </mxGeometry>
        </mxCell>
        <mxCell id="9NdUksTB03w-y8b6HVBz-46" value="" style="shape=tableRow;horizontal=0;startSize=0;swimlaneHead=0;swimlaneBody=0;strokeColor=inherit;top=0;left=0;bottom=0;right=0;collapsible=0;dropTarget=0;fillColor=none;points=[[0,0.5],[1,0.5]];portConstraint=eastwest;fontSize=16;" vertex="1" parent="9NdUksTB03w-y8b6HVBz-41">
          <mxGeometry y="20" width="391" height="20" as="geometry" />
        </mxCell>
        <mxCell id="9NdUksTB03w-y8b6HVBz-79" value="R" style="shape=partialRectangle;html=1;whiteSpace=wrap;connectable=0;strokeColor=inherit;overflow=hidden;fillColor=none;top=0;left=0;bottom=0;right=0;pointerEvents=1;fontSize=16;" vertex="1" parent="9NdUksTB03w-y8b6HVBz-46">
          <mxGeometry width="20" height="20" as="geometry">
            <mxRectangle width="20" height="20" as="alternateBounds" />
          </mxGeometry>
        </mxCell>
        <mxCell id="9NdUksTB03w-y8b6HVBz-75" value="S" style="shape=partialRectangle;html=1;whiteSpace=wrap;connectable=0;strokeColor=inherit;overflow=hidden;fillColor=none;top=0;left=0;bottom=0;right=0;pointerEvents=1;fontSize=16;" vertex="1" parent="9NdUksTB03w-y8b6HVBz-46">
          <mxGeometry x="20" width="19" height="20" as="geometry">
            <mxRectangle width="19" height="20" as="alternateBounds" />
          </mxGeometry>
        </mxCell>
        <mxCell id="9NdUksTB03w-y8b6HVBz-71" value="S" style="shape=partialRectangle;html=1;whiteSpace=wrap;connectable=0;strokeColor=inherit;overflow=hidden;fillColor=none;top=0;left=0;bottom=0;right=0;pointerEvents=1;fontSize=16;" vertex="1" parent="9NdUksTB03w-y8b6HVBz-46">
          <mxGeometry x="39" width="19" height="20" as="geometry">
            <mxRectangle width="19" height="20" as="alternateBounds" />
          </mxGeometry>
        </mxCell>
        <mxCell id="9NdUksTB03w-y8b6HVBz-67" value="I" style="shape=partialRectangle;html=1;whiteSpace=wrap;connectable=0;strokeColor=inherit;overflow=hidden;fillColor=none;top=0;left=0;bottom=0;right=0;pointerEvents=1;fontSize=16;" vertex="1" parent="9NdUksTB03w-y8b6HVBz-46">
          <mxGeometry x="58" width="20" height="20" as="geometry">
            <mxRectangle width="20" height="20" as="alternateBounds" />
          </mxGeometry>
        </mxCell>
        <mxCell id="9NdUksTB03w-y8b6HVBz-55" value=":" style="shape=partialRectangle;html=1;whiteSpace=wrap;connectable=0;strokeColor=inherit;overflow=hidden;fillColor=none;top=0;left=0;bottom=0;right=0;pointerEvents=1;fontSize=16;" vertex="1" parent="9NdUksTB03w-y8b6HVBz-46">
          <mxGeometry x="78" width="20" height="20" as="geometry">
            <mxRectangle width="20" height="20" as="alternateBounds" />
          </mxGeometry>
        </mxCell>
        <mxCell id="9NdUksTB03w-y8b6HVBz-47" value="X" style="shape=partialRectangle;html=1;whiteSpace=wrap;connectable=0;strokeColor=inherit;overflow=hidden;fillColor=none;top=0;left=0;bottom=0;right=0;pointerEvents=1;fontSize=16;" vertex="1" parent="9NdUksTB03w-y8b6HVBz-46">
          <mxGeometry x="98" width="20" height="20" as="geometry">
            <mxRectangle width="20" height="20" as="alternateBounds" />
          </mxGeometry>
        </mxCell>
        <mxCell id="9NdUksTB03w-y8b6HVBz-48" value="X" style="shape=partialRectangle;html=1;whiteSpace=wrap;connectable=0;strokeColor=inherit;overflow=hidden;fillColor=none;top=0;left=0;bottom=0;right=0;pointerEvents=1;fontSize=16;" vertex="1" parent="9NdUksTB03w-y8b6HVBz-46">
          <mxGeometry x="118" width="19" height="20" as="geometry">
            <mxRectangle width="19" height="20" as="alternateBounds" />
          </mxGeometry>
        </mxCell>
        <mxCell id="9NdUksTB03w-y8b6HVBz-49" value="X" style="shape=partialRectangle;html=1;whiteSpace=wrap;connectable=0;strokeColor=inherit;overflow=hidden;fillColor=none;top=0;left=0;bottom=0;right=0;pointerEvents=1;fontSize=16;" vertex="1" parent="9NdUksTB03w-y8b6HVBz-46">
          <mxGeometry x="137" width="20" height="20" as="geometry">
            <mxRectangle width="20" height="20" as="alternateBounds" />
          </mxGeometry>
        </mxCell>
        <mxCell id="9NdUksTB03w-y8b6HVBz-63" value="." style="shape=partialRectangle;html=1;whiteSpace=wrap;connectable=0;strokeColor=inherit;overflow=hidden;fillColor=none;top=0;left=0;bottom=0;right=0;pointerEvents=1;fontSize=16;" vertex="1" parent="9NdUksTB03w-y8b6HVBz-46">
          <mxGeometry x="157" width="19" height="20" as="geometry">
            <mxRectangle width="19" height="20" as="alternateBounds" />
          </mxGeometry>
        </mxCell>
        <mxCell id="9NdUksTB03w-y8b6HVBz-83" value="X" style="shape=partialRectangle;html=1;whiteSpace=wrap;connectable=0;strokeColor=inherit;overflow=hidden;fillColor=none;top=0;left=0;bottom=0;right=0;pointerEvents=1;fontSize=16;" vertex="1" parent="9NdUksTB03w-y8b6HVBz-46">
          <mxGeometry x="176" width="20" height="20" as="geometry">
            <mxRectangle width="20" height="20" as="alternateBounds" />
          </mxGeometry>
        </mxCell>
        <mxCell id="9NdUksTB03w-y8b6HVBz-87" value="d" style="shape=partialRectangle;html=1;whiteSpace=wrap;connectable=0;strokeColor=inherit;overflow=hidden;fillColor=none;top=0;left=0;bottom=0;right=0;pointerEvents=1;fontSize=16;" vertex="1" parent="9NdUksTB03w-y8b6HVBz-46">
          <mxGeometry x="196" width="19" height="20" as="geometry">
            <mxRectangle width="19" height="20" as="alternateBounds" />
          </mxGeometry>
        </mxCell>
        <mxCell id="9NdUksTB03w-y8b6HVBz-91" value="B" style="shape=partialRectangle;html=1;whiteSpace=wrap;connectable=0;strokeColor=inherit;overflow=hidden;fillColor=none;top=0;left=0;bottom=0;right=0;pointerEvents=1;fontSize=16;" vertex="1" parent="9NdUksTB03w-y8b6HVBz-46">
          <mxGeometry x="215" width="20" height="20" as="geometry">
            <mxRectangle width="20" height="20" as="alternateBounds" />
          </mxGeometry>
        </mxCell>
        <mxCell id="9NdUksTB03w-y8b6HVBz-95" style="shape=partialRectangle;html=1;whiteSpace=wrap;connectable=0;strokeColor=inherit;overflow=hidden;fillColor=none;top=0;left=0;bottom=0;right=0;pointerEvents=1;fontSize=16;" vertex="1" parent="9NdUksTB03w-y8b6HVBz-46">
          <mxGeometry x="235" width="19" height="20" as="geometry">
            <mxRectangle width="19" height="20" as="alternateBounds" />
          </mxGeometry>
        </mxCell>
        <mxCell id="9NdUksTB03w-y8b6HVBz-99" style="shape=partialRectangle;html=1;whiteSpace=wrap;connectable=0;strokeColor=inherit;overflow=hidden;fillColor=none;top=0;left=0;bottom=0;right=0;pointerEvents=1;fontSize=16;" vertex="1" parent="9NdUksTB03w-y8b6HVBz-46">
          <mxGeometry x="254" width="20" height="20" as="geometry">
            <mxRectangle width="20" height="20" as="alternateBounds" />
          </mxGeometry>
        </mxCell>
        <mxCell id="9NdUksTB03w-y8b6HVBz-103" style="shape=partialRectangle;html=1;whiteSpace=wrap;connectable=0;strokeColor=inherit;overflow=hidden;fillColor=none;top=0;left=0;bottom=0;right=0;pointerEvents=1;fontSize=16;" vertex="1" parent="9NdUksTB03w-y8b6HVBz-46">
          <mxGeometry x="274" width="19" height="20" as="geometry">
            <mxRectangle width="19" height="20" as="alternateBounds" />
          </mxGeometry>
        </mxCell>
        <mxCell id="9NdUksTB03w-y8b6HVBz-107" style="shape=partialRectangle;html=1;whiteSpace=wrap;connectable=0;strokeColor=inherit;overflow=hidden;fillColor=none;top=0;left=0;bottom=0;right=0;pointerEvents=1;fontSize=16;" vertex="1" parent="9NdUksTB03w-y8b6HVBz-46">
          <mxGeometry x="293" width="20" height="20" as="geometry">
            <mxRectangle width="20" height="20" as="alternateBounds" />
          </mxGeometry>
        </mxCell>
        <mxCell id="9NdUksTB03w-y8b6HVBz-111" style="shape=partialRectangle;html=1;whiteSpace=wrap;connectable=0;strokeColor=inherit;overflow=hidden;fillColor=none;top=0;left=0;bottom=0;right=0;pointerEvents=1;fontSize=16;" vertex="1" parent="9NdUksTB03w-y8b6HVBz-46">
          <mxGeometry x="313" width="19" height="20" as="geometry">
            <mxRectangle width="19" height="20" as="alternateBounds" />
          </mxGeometry>
        </mxCell>
        <mxCell id="9NdUksTB03w-y8b6HVBz-115" style="shape=partialRectangle;html=1;whiteSpace=wrap;connectable=0;strokeColor=inherit;overflow=hidden;fillColor=none;top=0;left=0;bottom=0;right=0;pointerEvents=1;fontSize=16;" vertex="1" parent="9NdUksTB03w-y8b6HVBz-46">
          <mxGeometry x="332" width="20" height="20" as="geometry">
            <mxRectangle width="20" height="20" as="alternateBounds" />
          </mxGeometry>
        </mxCell>
        <mxCell id="9NdUksTB03w-y8b6HVBz-119" style="shape=partialRectangle;html=1;whiteSpace=wrap;connectable=0;strokeColor=inherit;overflow=hidden;fillColor=none;top=0;left=0;bottom=0;right=0;pointerEvents=1;fontSize=16;" vertex="1" parent="9NdUksTB03w-y8b6HVBz-46">
          <mxGeometry x="352" width="19" height="20" as="geometry">
            <mxRectangle width="19" height="20" as="alternateBounds" />
          </mxGeometry>
        </mxCell>
        <mxCell id="9NdUksTB03w-y8b6HVBz-123" style="shape=partialRectangle;html=1;whiteSpace=wrap;connectable=0;strokeColor=inherit;overflow=hidden;fillColor=none;top=0;left=0;bottom=0;right=0;pointerEvents=1;fontSize=16;" vertex="1" parent="9NdUksTB03w-y8b6HVBz-46">
          <mxGeometry x="371" width="20" height="20" as="geometry">
            <mxRectangle width="20" height="20" as="alternateBounds" />
          </mxGeometry>
        </mxCell>
        <mxCell id="9NdUksTB03w-y8b6HVBz-50" value="" style="shape=tableRow;horizontal=0;startSize=0;swimlaneHead=0;swimlaneBody=0;strokeColor=inherit;top=0;left=0;bottom=0;right=0;collapsible=0;dropTarget=0;fillColor=none;points=[[0,0.5],[1,0.5]];portConstraint=eastwest;fontSize=16;" vertex="1" parent="9NdUksTB03w-y8b6HVBz-41">
          <mxGeometry y="40" width="391" height="20" as="geometry" />
        </mxCell>
        <mxCell id="9NdUksTB03w-y8b6HVBz-80" value="7" style="shape=partialRectangle;html=1;whiteSpace=wrap;connectable=0;strokeColor=inherit;overflow=hidden;fillColor=none;top=0;left=0;bottom=0;right=0;pointerEvents=1;fontSize=16;" vertex="1" parent="9NdUksTB03w-y8b6HVBz-50">
          <mxGeometry width="20" height="20" as="geometry">
            <mxRectangle width="20" height="20" as="alternateBounds" />
          </mxGeometry>
        </mxCell>
        <mxCell id="9NdUksTB03w-y8b6HVBz-76" value="4" style="shape=partialRectangle;html=1;whiteSpace=wrap;connectable=0;strokeColor=inherit;overflow=hidden;fillColor=none;top=0;left=0;bottom=0;right=0;pointerEvents=1;fontSize=16;" vertex="1" parent="9NdUksTB03w-y8b6HVBz-50">
          <mxGeometry x="20" width="19" height="20" as="geometry">
            <mxRectangle width="19" height="20" as="alternateBounds" />
          </mxGeometry>
        </mxCell>
        <mxCell id="9NdUksTB03w-y8b6HVBz-72" value="." style="shape=partialRectangle;html=1;whiteSpace=wrap;connectable=0;strokeColor=inherit;overflow=hidden;fillColor=none;top=0;left=0;bottom=0;right=0;pointerEvents=1;fontSize=16;" vertex="1" parent="9NdUksTB03w-y8b6HVBz-50">
          <mxGeometry x="39" width="19" height="20" as="geometry">
            <mxRectangle width="19" height="20" as="alternateBounds" />
          </mxGeometry>
        </mxCell>
        <mxCell id="9NdUksTB03w-y8b6HVBz-68" value="1" style="shape=partialRectangle;html=1;whiteSpace=wrap;connectable=0;strokeColor=inherit;overflow=hidden;fillColor=none;top=0;left=0;bottom=0;right=0;pointerEvents=1;fontSize=16;" vertex="1" parent="9NdUksTB03w-y8b6HVBz-50">
          <mxGeometry x="58" width="20" height="20" as="geometry">
            <mxRectangle width="20" height="20" as="alternateBounds" />
          </mxGeometry>
        </mxCell>
        <mxCell id="9NdUksTB03w-y8b6HVBz-56" value="2" style="shape=partialRectangle;html=1;whiteSpace=wrap;connectable=0;strokeColor=inherit;overflow=hidden;fillColor=none;top=0;left=0;bottom=0;right=0;pointerEvents=1;fontSize=16;" vertex="1" parent="9NdUksTB03w-y8b6HVBz-50">
          <mxGeometry x="78" width="20" height="20" as="geometry">
            <mxRectangle width="20" height="20" as="alternateBounds" />
          </mxGeometry>
        </mxCell>
        <mxCell id="9NdUksTB03w-y8b6HVBz-51" value="3" style="shape=partialRectangle;html=1;whiteSpace=wrap;connectable=0;strokeColor=inherit;overflow=hidden;fillColor=none;top=0;left=0;bottom=0;right=0;pointerEvents=1;fontSize=16;" vertex="1" parent="9NdUksTB03w-y8b6HVBz-50">
          <mxGeometry x="98" width="20" height="20" as="geometry">
            <mxRectangle width="20" height="20" as="alternateBounds" />
          </mxGeometry>
        </mxCell>
        <mxCell id="9NdUksTB03w-y8b6HVBz-52" value="4" style="shape=partialRectangle;html=1;whiteSpace=wrap;connectable=0;strokeColor=inherit;overflow=hidden;fillColor=none;top=0;left=0;bottom=0;right=0;pointerEvents=1;fontSize=16;" vertex="1" parent="9NdUksTB03w-y8b6HVBz-50">
          <mxGeometry x="118" width="19" height="20" as="geometry">
            <mxRectangle width="19" height="20" as="alternateBounds" />
          </mxGeometry>
        </mxCell>
        <mxCell id="9NdUksTB03w-y8b6HVBz-53" value="5" style="shape=partialRectangle;html=1;whiteSpace=wrap;connectable=0;strokeColor=inherit;overflow=hidden;fillColor=none;top=0;left=0;bottom=0;right=0;pointerEvents=1;fontSize=16;" vertex="1" parent="9NdUksTB03w-y8b6HVBz-50">
          <mxGeometry x="137" width="20" height="20" as="geometry">
            <mxRectangle width="20" height="20" as="alternateBounds" />
          </mxGeometry>
        </mxCell>
        <mxCell id="9NdUksTB03w-y8b6HVBz-64" value="6" style="shape=partialRectangle;html=1;whiteSpace=wrap;connectable=0;strokeColor=inherit;overflow=hidden;fillColor=none;top=0;left=0;bottom=0;right=0;pointerEvents=1;fontSize=16;" vertex="1" parent="9NdUksTB03w-y8b6HVBz-50">
          <mxGeometry x="157" width="19" height="20" as="geometry">
            <mxRectangle width="19" height="20" as="alternateBounds" />
          </mxGeometry>
        </mxCell>
        <mxCell id="9NdUksTB03w-y8b6HVBz-84" value="N" style="shape=partialRectangle;html=1;whiteSpace=wrap;connectable=0;strokeColor=inherit;overflow=hidden;fillColor=none;top=0;left=0;bottom=0;right=0;pointerEvents=1;fontSize=16;" vertex="1" parent="9NdUksTB03w-y8b6HVBz-50">
          <mxGeometry x="176" width="20" height="20" as="geometry">
            <mxRectangle width="20" height="20" as="alternateBounds" />
          </mxGeometry>
        </mxCell>
        <mxCell id="9NdUksTB03w-y8b6HVBz-88" value="5" style="shape=partialRectangle;html=1;whiteSpace=wrap;connectable=0;strokeColor=inherit;overflow=hidden;fillColor=none;top=0;left=0;bottom=0;right=0;pointerEvents=1;fontSize=16;" vertex="1" parent="9NdUksTB03w-y8b6HVBz-50">
          <mxGeometry x="196" width="19" height="20" as="geometry">
            <mxRectangle width="19" height="20" as="alternateBounds" />
          </mxGeometry>
        </mxCell>
        <mxCell id="9NdUksTB03w-y8b6HVBz-92" value="0" style="shape=partialRectangle;html=1;whiteSpace=wrap;connectable=0;strokeColor=inherit;overflow=hidden;fillColor=none;top=0;left=0;bottom=0;right=0;pointerEvents=1;fontSize=16;" vertex="1" parent="9NdUksTB03w-y8b6HVBz-50">
          <mxGeometry x="215" width="20" height="20" as="geometry">
            <mxRectangle width="20" height="20" as="alternateBounds" />
          </mxGeometry>
        </mxCell>
        <mxCell id="9NdUksTB03w-y8b6HVBz-96" value="." style="shape=partialRectangle;html=1;whiteSpace=wrap;connectable=0;strokeColor=inherit;overflow=hidden;fillColor=none;top=0;left=0;bottom=0;right=0;pointerEvents=1;fontSize=16;" vertex="1" parent="9NdUksTB03w-y8b6HVBz-50">
          <mxGeometry x="235" width="19" height="20" as="geometry">
            <mxRectangle width="19" height="20" as="alternateBounds" />
          </mxGeometry>
        </mxCell>
        <mxCell id="9NdUksTB03w-y8b6HVBz-100" value="1" style="shape=partialRectangle;html=1;whiteSpace=wrap;connectable=0;strokeColor=inherit;overflow=hidden;fillColor=none;top=0;left=0;bottom=0;right=0;pointerEvents=1;fontSize=16;" vertex="1" parent="9NdUksTB03w-y8b6HVBz-50">
          <mxGeometry x="254" width="20" height="20" as="geometry">
            <mxRectangle width="20" height="20" as="alternateBounds" />
          </mxGeometry>
        </mxCell>
        <mxCell id="9NdUksTB03w-y8b6HVBz-104" value="2" style="shape=partialRectangle;html=1;whiteSpace=wrap;connectable=0;strokeColor=inherit;overflow=hidden;fillColor=none;top=0;left=0;bottom=0;right=0;pointerEvents=1;fontSize=16;" vertex="1" parent="9NdUksTB03w-y8b6HVBz-50">
          <mxGeometry x="274" width="19" height="20" as="geometry">
            <mxRectangle width="19" height="20" as="alternateBounds" />
          </mxGeometry>
        </mxCell>
        <mxCell id="9NdUksTB03w-y8b6HVBz-108" value="3" style="shape=partialRectangle;html=1;whiteSpace=wrap;connectable=0;strokeColor=inherit;overflow=hidden;fillColor=none;top=0;left=0;bottom=0;right=0;pointerEvents=1;fontSize=16;" vertex="1" parent="9NdUksTB03w-y8b6HVBz-50">
          <mxGeometry x="293" width="20" height="20" as="geometry">
            <mxRectangle width="20" height="20" as="alternateBounds" />
          </mxGeometry>
        </mxCell>
        <mxCell id="9NdUksTB03w-y8b6HVBz-112" value="4" style="shape=partialRectangle;html=1;whiteSpace=wrap;connectable=0;strokeColor=inherit;overflow=hidden;fillColor=none;top=0;left=0;bottom=0;right=0;pointerEvents=1;fontSize=16;" vertex="1" parent="9NdUksTB03w-y8b6HVBz-50">
          <mxGeometry x="313" width="19" height="20" as="geometry">
            <mxRectangle width="19" height="20" as="alternateBounds" />
          </mxGeometry>
        </mxCell>
        <mxCell id="9NdUksTB03w-y8b6HVBz-116" value="5" style="shape=partialRectangle;html=1;whiteSpace=wrap;connectable=0;strokeColor=inherit;overflow=hidden;fillColor=none;top=0;left=0;bottom=0;right=0;pointerEvents=1;fontSize=16;" vertex="1" parent="9NdUksTB03w-y8b6HVBz-50">
          <mxGeometry x="332" width="20" height="20" as="geometry">
            <mxRectangle width="20" height="20" as="alternateBounds" />
          </mxGeometry>
        </mxCell>
        <mxCell id="9NdUksTB03w-y8b6HVBz-120" value="6" style="shape=partialRectangle;html=1;whiteSpace=wrap;connectable=0;strokeColor=inherit;overflow=hidden;fillColor=none;top=0;left=0;bottom=0;right=0;pointerEvents=1;fontSize=16;" vertex="1" parent="9NdUksTB03w-y8b6HVBz-50">
          <mxGeometry x="352" width="19" height="20" as="geometry">
            <mxRectangle width="19" height="20" as="alternateBounds" />
          </mxGeometry>
        </mxCell>
        <mxCell id="9NdUksTB03w-y8b6HVBz-124" value="W" style="shape=partialRectangle;html=1;whiteSpace=wrap;connectable=0;strokeColor=inherit;overflow=hidden;fillColor=none;top=0;left=0;bottom=0;right=0;pointerEvents=1;fontSize=16;" vertex="1" parent="9NdUksTB03w-y8b6HVBz-50">
          <mxGeometry x="371" width="20" height="20" as="geometry">
            <mxRectangle width="20" height="20" as="alternateBounds" />
          </mxGeometry>
        </mxCell>
        <mxCell id="9NdUksTB03w-y8b6HVBz-57" style="shape=tableRow;horizontal=0;startSize=0;swimlaneHead=0;swimlaneBody=0;strokeColor=inherit;top=0;left=0;bottom=0;right=0;collapsible=0;dropTarget=0;fillColor=none;points=[[0,0.5],[1,0.5]];portConstraint=eastwest;fontSize=16;" vertex="1" parent="9NdUksTB03w-y8b6HVBz-41">
          <mxGeometry y="60" width="391" height="20" as="geometry" />
        </mxCell>
        <mxCell id="9NdUksTB03w-y8b6HVBz-81" value="#" style="shape=partialRectangle;html=1;whiteSpace=wrap;connectable=0;strokeColor=inherit;overflow=hidden;fillColor=none;top=0;left=0;bottom=0;right=0;pointerEvents=1;fontSize=16;" vertex="1" parent="9NdUksTB03w-y8b6HVBz-57">
          <mxGeometry width="20" height="20" as="geometry">
            <mxRectangle width="20" height="20" as="alternateBounds" />
          </mxGeometry>
        </mxCell>
        <mxCell id="9NdUksTB03w-y8b6HVBz-77" value="#" style="shape=partialRectangle;html=1;whiteSpace=wrap;connectable=0;strokeColor=inherit;overflow=hidden;fillColor=none;top=0;left=0;bottom=0;right=0;pointerEvents=1;fontSize=16;" vertex="1" parent="9NdUksTB03w-y8b6HVBz-57">
          <mxGeometry x="20" width="19" height="20" as="geometry">
            <mxRectangle width="19" height="20" as="alternateBounds" />
          </mxGeometry>
        </mxCell>
        <mxCell id="9NdUksTB03w-y8b6HVBz-73" value="#" style="shape=partialRectangle;html=1;whiteSpace=wrap;connectable=0;strokeColor=inherit;overflow=hidden;fillColor=none;top=0;left=0;bottom=0;right=0;pointerEvents=1;fontSize=16;" vertex="1" parent="9NdUksTB03w-y8b6HVBz-57">
          <mxGeometry x="39" width="19" height="20" as="geometry">
            <mxRectangle width="19" height="20" as="alternateBounds" />
          </mxGeometry>
        </mxCell>
        <mxCell id="9NdUksTB03w-y8b6HVBz-69" value="#" style="shape=partialRectangle;html=1;whiteSpace=wrap;connectable=0;strokeColor=inherit;overflow=hidden;fillColor=none;top=0;left=0;bottom=0;right=0;pointerEvents=1;fontSize=16;" vertex="1" parent="9NdUksTB03w-y8b6HVBz-57">
          <mxGeometry x="58" width="20" height="20" as="geometry">
            <mxRectangle width="20" height="20" as="alternateBounds" />
          </mxGeometry>
        </mxCell>
        <mxCell id="9NdUksTB03w-y8b6HVBz-58" value="#" style="shape=partialRectangle;html=1;whiteSpace=wrap;connectable=0;strokeColor=inherit;overflow=hidden;fillColor=none;top=0;left=0;bottom=0;right=0;pointerEvents=1;fontSize=16;" vertex="1" parent="9NdUksTB03w-y8b6HVBz-57">
          <mxGeometry x="78" width="20" height="20" as="geometry">
            <mxRectangle width="20" height="20" as="alternateBounds" />
          </mxGeometry>
        </mxCell>
        <mxCell id="9NdUksTB03w-y8b6HVBz-59" value="#" style="shape=partialRectangle;html=1;whiteSpace=wrap;connectable=0;strokeColor=inherit;overflow=hidden;fillColor=none;top=0;left=0;bottom=0;right=0;pointerEvents=1;fontSize=16;" vertex="1" parent="9NdUksTB03w-y8b6HVBz-57">
          <mxGeometry x="98" width="20" height="20" as="geometry">
            <mxRectangle width="20" height="20" as="alternateBounds" />
          </mxGeometry>
        </mxCell>
        <mxCell id="9NdUksTB03w-y8b6HVBz-60" value="#" style="shape=partialRectangle;html=1;whiteSpace=wrap;connectable=0;strokeColor=inherit;overflow=hidden;fillColor=none;top=0;left=0;bottom=0;right=0;pointerEvents=1;fontSize=16;" vertex="1" parent="9NdUksTB03w-y8b6HVBz-57">
          <mxGeometry x="118" width="19" height="20" as="geometry">
            <mxRectangle width="19" height="20" as="alternateBounds" />
          </mxGeometry>
        </mxCell>
        <mxCell id="9NdUksTB03w-y8b6HVBz-61" value="#" style="shape=partialRectangle;html=1;whiteSpace=wrap;connectable=0;strokeColor=inherit;overflow=hidden;fillColor=none;top=0;left=0;bottom=0;right=0;pointerEvents=1;fontSize=16;" vertex="1" parent="9NdUksTB03w-y8b6HVBz-57">
          <mxGeometry x="137" width="20" height="20" as="geometry">
            <mxRectangle width="20" height="20" as="alternateBounds" />
          </mxGeometry>
        </mxCell>
        <mxCell id="9NdUksTB03w-y8b6HVBz-65" value="-" style="shape=partialRectangle;html=1;whiteSpace=wrap;connectable=0;strokeColor=inherit;overflow=hidden;fillColor=none;top=0;left=0;bottom=0;right=0;pointerEvents=1;fontSize=16;" vertex="1" parent="9NdUksTB03w-y8b6HVBz-57">
          <mxGeometry x="157" width="19" height="20" as="geometry">
            <mxRectangle width="19" height="20" as="alternateBounds" />
          </mxGeometry>
        </mxCell>
        <mxCell id="9NdUksTB03w-y8b6HVBz-85" value="-" style="shape=partialRectangle;html=1;whiteSpace=wrap;connectable=0;strokeColor=inherit;overflow=hidden;fillColor=none;top=0;left=0;bottom=0;right=0;pointerEvents=1;fontSize=16;" vertex="1" parent="9NdUksTB03w-y8b6HVBz-57">
          <mxGeometry x="176" width="20" height="20" as="geometry">
            <mxRectangle width="20" height="20" as="alternateBounds" />
          </mxGeometry>
        </mxCell>
        <mxCell id="9NdUksTB03w-y8b6HVBz-89" value="-" style="shape=partialRectangle;html=1;whiteSpace=wrap;connectable=0;strokeColor=inherit;overflow=hidden;fillColor=none;top=0;left=0;bottom=0;right=0;pointerEvents=1;fontSize=16;" vertex="1" parent="9NdUksTB03w-y8b6HVBz-57">
          <mxGeometry x="196" width="19" height="20" as="geometry">
            <mxRectangle width="19" height="20" as="alternateBounds" />
          </mxGeometry>
        </mxCell>
        <mxCell id="9NdUksTB03w-y8b6HVBz-93" value="-" style="shape=partialRectangle;html=1;whiteSpace=wrap;connectable=0;strokeColor=inherit;overflow=hidden;fillColor=none;top=0;left=0;bottom=0;right=0;pointerEvents=1;fontSize=16;" vertex="1" parent="9NdUksTB03w-y8b6HVBz-57">
          <mxGeometry x="215" width="20" height="20" as="geometry">
            <mxRectangle width="20" height="20" as="alternateBounds" />
          </mxGeometry>
        </mxCell>
        <mxCell id="9NdUksTB03w-y8b6HVBz-97" value="-" style="shape=partialRectangle;html=1;whiteSpace=wrap;connectable=0;strokeColor=inherit;overflow=hidden;fillColor=none;top=0;left=0;bottom=0;right=0;pointerEvents=1;fontSize=16;" vertex="1" parent="9NdUksTB03w-y8b6HVBz-57">
          <mxGeometry x="235" width="19" height="20" as="geometry">
            <mxRectangle width="19" height="20" as="alternateBounds" />
          </mxGeometry>
        </mxCell>
        <mxCell id="9NdUksTB03w-y8b6HVBz-101" value="-" style="shape=partialRectangle;html=1;whiteSpace=wrap;connectable=0;strokeColor=inherit;overflow=hidden;fillColor=none;top=0;left=0;bottom=0;right=0;pointerEvents=1;fontSize=16;" vertex="1" parent="9NdUksTB03w-y8b6HVBz-57">
          <mxGeometry x="254" width="20" height="20" as="geometry">
            <mxRectangle width="20" height="20" as="alternateBounds" />
          </mxGeometry>
        </mxCell>
        <mxCell id="9NdUksTB03w-y8b6HVBz-105" value="-" style="shape=partialRectangle;html=1;whiteSpace=wrap;connectable=0;strokeColor=inherit;overflow=hidden;fillColor=none;top=0;left=0;bottom=0;right=0;pointerEvents=1;fontSize=16;" vertex="1" parent="9NdUksTB03w-y8b6HVBz-57">
          <mxGeometry x="274" width="19" height="20" as="geometry">
            <mxRectangle width="19" height="20" as="alternateBounds" />
          </mxGeometry>
        </mxCell>
        <mxCell id="9NdUksTB03w-y8b6HVBz-109" value="-" style="shape=partialRectangle;html=1;whiteSpace=wrap;connectable=0;strokeColor=inherit;overflow=hidden;fillColor=none;top=0;left=0;bottom=0;right=0;pointerEvents=1;fontSize=16;" vertex="1" parent="9NdUksTB03w-y8b6HVBz-57">
          <mxGeometry x="293" width="20" height="20" as="geometry">
            <mxRectangle width="20" height="20" as="alternateBounds" />
          </mxGeometry>
        </mxCell>
        <mxCell id="9NdUksTB03w-y8b6HVBz-113" value="-" style="shape=partialRectangle;html=1;whiteSpace=wrap;connectable=0;strokeColor=inherit;overflow=hidden;fillColor=none;top=0;left=0;bottom=0;right=0;pointerEvents=1;fontSize=16;" vertex="1" parent="9NdUksTB03w-y8b6HVBz-57">
          <mxGeometry x="313" width="19" height="20" as="geometry">
            <mxRectangle width="19" height="20" as="alternateBounds" />
          </mxGeometry>
        </mxCell>
        <mxCell id="9NdUksTB03w-y8b6HVBz-117" value="-" style="shape=partialRectangle;html=1;whiteSpace=wrap;connectable=0;strokeColor=inherit;overflow=hidden;fillColor=none;top=0;left=0;bottom=0;right=0;pointerEvents=1;fontSize=16;" vertex="1" parent="9NdUksTB03w-y8b6HVBz-57">
          <mxGeometry x="332" width="20" height="20" as="geometry">
            <mxRectangle width="20" height="20" as="alternateBounds" />
          </mxGeometry>
        </mxCell>
        <mxCell id="9NdUksTB03w-y8b6HVBz-121" value="-" style="shape=partialRectangle;html=1;whiteSpace=wrap;connectable=0;strokeColor=inherit;overflow=hidden;fillColor=none;top=0;left=0;bottom=0;right=0;pointerEvents=1;fontSize=16;" vertex="1" parent="9NdUksTB03w-y8b6HVBz-57">
          <mxGeometry x="352" width="19" height="20" as="geometry">
            <mxRectangle width="19" height="20" as="alternateBounds" />
          </mxGeometry>
        </mxCell>
        <mxCell id="9NdUksTB03w-y8b6HVBz-125" value="-" style="shape=partialRectangle;html=1;whiteSpace=wrap;connectable=0;strokeColor=inherit;overflow=hidden;fillColor=none;top=0;left=0;bottom=0;right=0;pointerEvents=1;fontSize=16;" vertex="1" parent="9NdUksTB03w-y8b6HVBz-57">
          <mxGeometry x="371" width="20" height="20" as="geometry">
            <mxRectangle width="20" height="20" as="alternateBounds" />
          </mxGeometry>
        </mxCell>
        <mxCell id="9NdUksTB03w-y8b6HVBz-126" value="" style="shape=table;startSize=0;container=1;collapsible=0;childLayout=tableLayout;fontSize=16;swimlaneLine=1;" vertex="1" parent="1">
          <mxGeometry x="15" y="170" width="391" height="80" as="geometry" />
        </mxCell>
        <mxCell id="9NdUksTB03w-y8b6HVBz-127" value="" style="shape=tableRow;horizontal=0;startSize=0;swimlaneHead=0;swimlaneBody=0;strokeColor=inherit;top=0;left=0;bottom=0;right=0;collapsible=0;dropTarget=0;fillColor=none;points=[[0,0.5],[1,0.5]];portConstraint=eastwest;fontSize=16;" vertex="1" parent="9NdUksTB03w-y8b6HVBz-126">
          <mxGeometry width="391" height="20" as="geometry" />
        </mxCell>
        <mxCell id="9NdUksTB03w-y8b6HVBz-128" value="C" style="shape=partialRectangle;html=1;whiteSpace=wrap;connectable=0;strokeColor=inherit;overflow=hidden;fillColor=none;top=0;left=0;bottom=0;right=0;pointerEvents=1;fontSize=16;" vertex="1" parent="9NdUksTB03w-y8b6HVBz-127">
          <mxGeometry width="20" height="20" as="geometry">
            <mxRectangle width="20" height="20" as="alternateBounds" />
          </mxGeometry>
        </mxCell>
        <mxCell id="9NdUksTB03w-y8b6HVBz-129" value="H" style="shape=partialRectangle;html=1;whiteSpace=wrap;connectable=0;strokeColor=inherit;overflow=hidden;fillColor=none;top=0;left=0;bottom=0;right=0;pointerEvents=1;fontSize=16;" vertex="1" parent="9NdUksTB03w-y8b6HVBz-127">
          <mxGeometry x="20" width="18" height="20" as="geometry">
            <mxRectangle width="18" height="20" as="alternateBounds" />
          </mxGeometry>
        </mxCell>
        <mxCell id="9NdUksTB03w-y8b6HVBz-130" value=":" style="shape=partialRectangle;html=1;whiteSpace=wrap;connectable=0;strokeColor=inherit;overflow=hidden;fillColor=none;top=0;left=0;bottom=0;right=0;pointerEvents=1;fontSize=16;" vertex="1" parent="9NdUksTB03w-y8b6HVBz-127">
          <mxGeometry x="38" width="20" height="20" as="geometry">
            <mxRectangle width="20" height="20" as="alternateBounds" />
          </mxGeometry>
        </mxCell>
        <mxCell id="9NdUksTB03w-y8b6HVBz-131" value="X" style="shape=partialRectangle;html=1;whiteSpace=wrap;connectable=0;strokeColor=inherit;overflow=hidden;fillColor=none;top=0;left=0;bottom=0;right=0;pointerEvents=1;fontSize=16;" vertex="1" parent="9NdUksTB03w-y8b6HVBz-127">
          <mxGeometry x="58" width="20" height="20" as="geometry">
            <mxRectangle width="20" height="20" as="alternateBounds" />
          </mxGeometry>
        </mxCell>
        <mxCell id="9NdUksTB03w-y8b6HVBz-132" style="shape=partialRectangle;html=1;whiteSpace=wrap;connectable=0;strokeColor=inherit;overflow=hidden;fillColor=none;top=0;left=0;bottom=0;right=0;pointerEvents=1;fontSize=16;" vertex="1" parent="9NdUksTB03w-y8b6HVBz-127">
          <mxGeometry x="78" width="20" height="20" as="geometry">
            <mxRectangle width="20" height="20" as="alternateBounds" />
          </mxGeometry>
        </mxCell>
        <mxCell id="9NdUksTB03w-y8b6HVBz-133" value="" style="shape=partialRectangle;html=1;whiteSpace=wrap;connectable=0;strokeColor=inherit;overflow=hidden;fillColor=none;top=0;left=0;bottom=0;right=0;pointerEvents=1;fontSize=16;" vertex="1" parent="9NdUksTB03w-y8b6HVBz-127">
          <mxGeometry x="98" width="20" height="20" as="geometry">
            <mxRectangle width="20" height="20" as="alternateBounds" />
          </mxGeometry>
        </mxCell>
        <mxCell id="9NdUksTB03w-y8b6HVBz-134" value="" style="shape=partialRectangle;html=1;whiteSpace=wrap;connectable=0;strokeColor=inherit;overflow=hidden;fillColor=none;top=0;left=0;bottom=0;right=0;pointerEvents=1;fontSize=16;" vertex="1" parent="9NdUksTB03w-y8b6HVBz-127">
          <mxGeometry x="118" width="19" height="20" as="geometry">
            <mxRectangle width="19" height="20" as="alternateBounds" />
          </mxGeometry>
        </mxCell>
        <mxCell id="9NdUksTB03w-y8b6HVBz-135" value="" style="shape=partialRectangle;html=1;whiteSpace=wrap;connectable=0;strokeColor=inherit;overflow=hidden;fillColor=none;top=0;left=0;bottom=0;right=0;pointerEvents=1;fontSize=16;" vertex="1" parent="9NdUksTB03w-y8b6HVBz-127">
          <mxGeometry x="137" width="20" height="20" as="geometry">
            <mxRectangle width="20" height="20" as="alternateBounds" />
          </mxGeometry>
        </mxCell>
        <mxCell id="9NdUksTB03w-y8b6HVBz-136" style="shape=partialRectangle;html=1;whiteSpace=wrap;connectable=0;strokeColor=inherit;overflow=hidden;fillColor=none;top=0;left=0;bottom=0;right=0;pointerEvents=1;fontSize=16;" vertex="1" parent="9NdUksTB03w-y8b6HVBz-127">
          <mxGeometry x="157" width="19" height="20" as="geometry">
            <mxRectangle width="19" height="20" as="alternateBounds" />
          </mxGeometry>
        </mxCell>
        <mxCell id="9NdUksTB03w-y8b6HVBz-137" value="4" style="shape=partialRectangle;html=1;whiteSpace=wrap;connectable=0;strokeColor=inherit;overflow=hidden;fillColor=none;top=0;left=0;bottom=0;right=0;pointerEvents=1;fontSize=16;" vertex="1" parent="9NdUksTB03w-y8b6HVBz-127">
          <mxGeometry x="176" width="20" height="20" as="geometry">
            <mxRectangle width="20" height="20" as="alternateBounds" />
          </mxGeometry>
        </mxCell>
        <mxCell id="9NdUksTB03w-y8b6HVBz-138" value="Y" style="shape=partialRectangle;html=1;whiteSpace=wrap;connectable=0;strokeColor=inherit;overflow=hidden;fillColor=none;top=0;left=0;bottom=0;right=0;pointerEvents=1;fontSize=16;" vertex="1" parent="9NdUksTB03w-y8b6HVBz-127">
          <mxGeometry x="196" width="19" height="20" as="geometry">
            <mxRectangle width="19" height="20" as="alternateBounds" />
          </mxGeometry>
        </mxCell>
        <mxCell id="9NdUksTB03w-y8b6HVBz-139" value="Y" style="shape=partialRectangle;html=1;whiteSpace=wrap;connectable=0;strokeColor=inherit;overflow=hidden;fillColor=none;top=0;left=0;bottom=0;right=0;pointerEvents=1;fontSize=16;" vertex="1" parent="9NdUksTB03w-y8b6HVBz-127">
          <mxGeometry x="215" width="20" height="20" as="geometry">
            <mxRectangle width="20" height="20" as="alternateBounds" />
          </mxGeometry>
        </mxCell>
        <mxCell id="9NdUksTB03w-y8b6HVBz-140" value="." style="shape=partialRectangle;html=1;whiteSpace=wrap;connectable=0;strokeColor=inherit;overflow=hidden;fillColor=none;top=0;left=0;bottom=0;right=0;pointerEvents=1;fontSize=16;" vertex="1" parent="9NdUksTB03w-y8b6HVBz-127">
          <mxGeometry x="235" width="19" height="20" as="geometry">
            <mxRectangle width="19" height="20" as="alternateBounds" />
          </mxGeometry>
        </mxCell>
        <mxCell id="9NdUksTB03w-y8b6HVBz-141" value="X" style="shape=partialRectangle;html=1;whiteSpace=wrap;connectable=0;strokeColor=inherit;overflow=hidden;fillColor=none;top=0;left=0;bottom=0;right=0;pointerEvents=1;fontSize=16;" vertex="1" parent="9NdUksTB03w-y8b6HVBz-127">
          <mxGeometry x="254" width="20" height="20" as="geometry">
            <mxRectangle width="20" height="20" as="alternateBounds" />
          </mxGeometry>
        </mxCell>
        <mxCell id="9NdUksTB03w-y8b6HVBz-142" value="X" style="shape=partialRectangle;html=1;whiteSpace=wrap;connectable=0;strokeColor=inherit;overflow=hidden;fillColor=none;top=0;left=0;bottom=0;right=0;pointerEvents=1;fontSize=16;" vertex="1" parent="9NdUksTB03w-y8b6HVBz-127">
          <mxGeometry x="274" width="19" height="20" as="geometry">
            <mxRectangle width="19" height="20" as="alternateBounds" />
          </mxGeometry>
        </mxCell>
        <mxCell id="9NdUksTB03w-y8b6HVBz-143" value="X" style="shape=partialRectangle;html=1;whiteSpace=wrap;connectable=0;strokeColor=inherit;overflow=hidden;fillColor=none;top=0;left=0;bottom=0;right=0;pointerEvents=1;fontSize=16;" vertex="1" parent="9NdUksTB03w-y8b6HVBz-127">
          <mxGeometry x="293" width="19" height="20" as="geometry">
            <mxRectangle width="19" height="20" as="alternateBounds" />
          </mxGeometry>
        </mxCell>
        <mxCell id="9NdUksTB03w-y8b6HVBz-144" value="_" style="shape=partialRectangle;html=1;whiteSpace=wrap;connectable=0;strokeColor=inherit;overflow=hidden;fillColor=none;top=0;left=0;bottom=0;right=0;pointerEvents=1;fontSize=16;" vertex="1" parent="9NdUksTB03w-y8b6HVBz-127">
          <mxGeometry x="312" width="20" height="20" as="geometry">
            <mxRectangle width="20" height="20" as="alternateBounds" />
          </mxGeometry>
        </mxCell>
        <mxCell id="9NdUksTB03w-y8b6HVBz-145" value="X" style="shape=partialRectangle;html=1;whiteSpace=wrap;connectable=0;strokeColor=inherit;overflow=hidden;fillColor=none;top=0;left=0;bottom=0;right=0;pointerEvents=1;fontSize=16;" vertex="1" parent="9NdUksTB03w-y8b6HVBz-127">
          <mxGeometry x="332" width="20" height="20" as="geometry">
            <mxRectangle width="20" height="20" as="alternateBounds" />
          </mxGeometry>
        </mxCell>
        <mxCell id="9NdUksTB03w-y8b6HVBz-146" value="X" style="shape=partialRectangle;html=1;whiteSpace=wrap;connectable=0;strokeColor=inherit;overflow=hidden;fillColor=none;top=0;left=0;bottom=0;right=0;pointerEvents=1;fontSize=16;" vertex="1" parent="9NdUksTB03w-y8b6HVBz-127">
          <mxGeometry x="352" width="19" height="20" as="geometry">
            <mxRectangle width="19" height="20" as="alternateBounds" />
          </mxGeometry>
        </mxCell>
        <mxCell id="9NdUksTB03w-y8b6HVBz-147" value="X" style="shape=partialRectangle;html=1;whiteSpace=wrap;connectable=0;strokeColor=inherit;overflow=hidden;fillColor=none;top=0;left=0;bottom=0;right=0;pointerEvents=1;fontSize=16;" vertex="1" parent="9NdUksTB03w-y8b6HVBz-127">
          <mxGeometry x="371" width="20" height="20" as="geometry">
            <mxRectangle width="20" height="20" as="alternateBounds" />
          </mxGeometry>
        </mxCell>
        <mxCell id="9NdUksTB03w-y8b6HVBz-148" value="" style="shape=tableRow;horizontal=0;startSize=0;swimlaneHead=0;swimlaneBody=0;strokeColor=inherit;top=0;left=0;bottom=0;right=0;collapsible=0;dropTarget=0;fillColor=none;points=[[0,0.5],[1,0.5]];portConstraint=eastwest;fontSize=16;" vertex="1" parent="9NdUksTB03w-y8b6HVBz-126">
          <mxGeometry y="20" width="391" height="20" as="geometry" />
        </mxCell>
        <mxCell id="9NdUksTB03w-y8b6HVBz-149" value="R" style="shape=partialRectangle;html=1;whiteSpace=wrap;connectable=0;strokeColor=inherit;overflow=hidden;fillColor=none;top=0;left=0;bottom=0;right=0;pointerEvents=1;fontSize=16;" vertex="1" parent="9NdUksTB03w-y8b6HVBz-148">
          <mxGeometry width="20" height="20" as="geometry">
            <mxRectangle width="20" height="20" as="alternateBounds" />
          </mxGeometry>
        </mxCell>
        <mxCell id="9NdUksTB03w-y8b6HVBz-150" value="S" style="shape=partialRectangle;html=1;whiteSpace=wrap;connectable=0;strokeColor=inherit;overflow=hidden;fillColor=none;top=0;left=0;bottom=0;right=0;pointerEvents=1;fontSize=16;" vertex="1" parent="9NdUksTB03w-y8b6HVBz-148">
          <mxGeometry x="20" width="18" height="20" as="geometry">
            <mxRectangle width="18" height="20" as="alternateBounds" />
          </mxGeometry>
        </mxCell>
        <mxCell id="9NdUksTB03w-y8b6HVBz-151" value="S" style="shape=partialRectangle;html=1;whiteSpace=wrap;connectable=0;strokeColor=inherit;overflow=hidden;fillColor=none;top=0;left=0;bottom=0;right=0;pointerEvents=1;fontSize=16;" vertex="1" parent="9NdUksTB03w-y8b6HVBz-148">
          <mxGeometry x="38" width="20" height="20" as="geometry">
            <mxRectangle width="20" height="20" as="alternateBounds" />
          </mxGeometry>
        </mxCell>
        <mxCell id="9NdUksTB03w-y8b6HVBz-152" value="I" style="shape=partialRectangle;html=1;whiteSpace=wrap;connectable=0;strokeColor=inherit;overflow=hidden;fillColor=none;top=0;left=0;bottom=0;right=0;pointerEvents=1;fontSize=16;" vertex="1" parent="9NdUksTB03w-y8b6HVBz-148">
          <mxGeometry x="58" width="20" height="20" as="geometry">
            <mxRectangle width="20" height="20" as="alternateBounds" />
          </mxGeometry>
        </mxCell>
        <mxCell id="9NdUksTB03w-y8b6HVBz-153" value=":" style="shape=partialRectangle;html=1;whiteSpace=wrap;connectable=0;strokeColor=inherit;overflow=hidden;fillColor=none;top=0;left=0;bottom=0;right=0;pointerEvents=1;fontSize=16;" vertex="1" parent="9NdUksTB03w-y8b6HVBz-148">
          <mxGeometry x="78" width="20" height="20" as="geometry">
            <mxRectangle width="20" height="20" as="alternateBounds" />
          </mxGeometry>
        </mxCell>
        <mxCell id="9NdUksTB03w-y8b6HVBz-154" value="X" style="shape=partialRectangle;html=1;whiteSpace=wrap;connectable=0;strokeColor=inherit;overflow=hidden;fillColor=none;top=0;left=0;bottom=0;right=0;pointerEvents=1;fontSize=16;" vertex="1" parent="9NdUksTB03w-y8b6HVBz-148">
          <mxGeometry x="98" width="20" height="20" as="geometry">
            <mxRectangle width="20" height="20" as="alternateBounds" />
          </mxGeometry>
        </mxCell>
        <mxCell id="9NdUksTB03w-y8b6HVBz-155" value="X" style="shape=partialRectangle;html=1;whiteSpace=wrap;connectable=0;strokeColor=inherit;overflow=hidden;fillColor=none;top=0;left=0;bottom=0;right=0;pointerEvents=1;fontSize=16;" vertex="1" parent="9NdUksTB03w-y8b6HVBz-148">
          <mxGeometry x="118" width="19" height="20" as="geometry">
            <mxRectangle width="19" height="20" as="alternateBounds" />
          </mxGeometry>
        </mxCell>
        <mxCell id="9NdUksTB03w-y8b6HVBz-156" value="X" style="shape=partialRectangle;html=1;whiteSpace=wrap;connectable=0;strokeColor=inherit;overflow=hidden;fillColor=none;top=0;left=0;bottom=0;right=0;pointerEvents=1;fontSize=16;" vertex="1" parent="9NdUksTB03w-y8b6HVBz-148">
          <mxGeometry x="137" width="20" height="20" as="geometry">
            <mxRectangle width="20" height="20" as="alternateBounds" />
          </mxGeometry>
        </mxCell>
        <mxCell id="9NdUksTB03w-y8b6HVBz-157" value="." style="shape=partialRectangle;html=1;whiteSpace=wrap;connectable=0;strokeColor=inherit;overflow=hidden;fillColor=none;top=0;left=0;bottom=0;right=0;pointerEvents=1;fontSize=16;" vertex="1" parent="9NdUksTB03w-y8b6HVBz-148">
          <mxGeometry x="157" width="19" height="20" as="geometry">
            <mxRectangle width="19" height="20" as="alternateBounds" />
          </mxGeometry>
        </mxCell>
        <mxCell id="9NdUksTB03w-y8b6HVBz-158" value="X" style="shape=partialRectangle;html=1;whiteSpace=wrap;connectable=0;strokeColor=inherit;overflow=hidden;fillColor=none;top=0;left=0;bottom=0;right=0;pointerEvents=1;fontSize=16;" vertex="1" parent="9NdUksTB03w-y8b6HVBz-148">
          <mxGeometry x="176" width="20" height="20" as="geometry">
            <mxRectangle width="20" height="20" as="alternateBounds" />
          </mxGeometry>
        </mxCell>
        <mxCell id="9NdUksTB03w-y8b6HVBz-159" value="d" style="shape=partialRectangle;html=1;whiteSpace=wrap;connectable=0;strokeColor=inherit;overflow=hidden;fillColor=none;top=0;left=0;bottom=0;right=0;pointerEvents=1;fontSize=16;" vertex="1" parent="9NdUksTB03w-y8b6HVBz-148">
          <mxGeometry x="196" width="19" height="20" as="geometry">
            <mxRectangle width="19" height="20" as="alternateBounds" />
          </mxGeometry>
        </mxCell>
        <mxCell id="9NdUksTB03w-y8b6HVBz-160" value="B" style="shape=partialRectangle;html=1;whiteSpace=wrap;connectable=0;strokeColor=inherit;overflow=hidden;fillColor=none;top=0;left=0;bottom=0;right=0;pointerEvents=1;fontSize=16;" vertex="1" parent="9NdUksTB03w-y8b6HVBz-148">
          <mxGeometry x="215" width="20" height="20" as="geometry">
            <mxRectangle width="20" height="20" as="alternateBounds" />
          </mxGeometry>
        </mxCell>
        <mxCell id="9NdUksTB03w-y8b6HVBz-161" style="shape=partialRectangle;html=1;whiteSpace=wrap;connectable=0;strokeColor=inherit;overflow=hidden;fillColor=none;top=0;left=0;bottom=0;right=0;pointerEvents=1;fontSize=16;" vertex="1" parent="9NdUksTB03w-y8b6HVBz-148">
          <mxGeometry x="235" width="19" height="20" as="geometry">
            <mxRectangle width="19" height="20" as="alternateBounds" />
          </mxGeometry>
        </mxCell>
        <mxCell id="9NdUksTB03w-y8b6HVBz-162" style="shape=partialRectangle;html=1;whiteSpace=wrap;connectable=0;strokeColor=inherit;overflow=hidden;fillColor=none;top=0;left=0;bottom=0;right=0;pointerEvents=1;fontSize=16;" vertex="1" parent="9NdUksTB03w-y8b6HVBz-148">
          <mxGeometry x="254" width="20" height="20" as="geometry">
            <mxRectangle width="20" height="20" as="alternateBounds" />
          </mxGeometry>
        </mxCell>
        <mxCell id="9NdUksTB03w-y8b6HVBz-163" style="shape=partialRectangle;html=1;whiteSpace=wrap;connectable=0;strokeColor=inherit;overflow=hidden;fillColor=none;top=0;left=0;bottom=0;right=0;pointerEvents=1;fontSize=16;" vertex="1" parent="9NdUksTB03w-y8b6HVBz-148">
          <mxGeometry x="274" width="19" height="20" as="geometry">
            <mxRectangle width="19" height="20" as="alternateBounds" />
          </mxGeometry>
        </mxCell>
        <mxCell id="9NdUksTB03w-y8b6HVBz-164" style="shape=partialRectangle;html=1;whiteSpace=wrap;connectable=0;strokeColor=inherit;overflow=hidden;fillColor=none;top=0;left=0;bottom=0;right=0;pointerEvents=1;fontSize=16;" vertex="1" parent="9NdUksTB03w-y8b6HVBz-148">
          <mxGeometry x="293" width="19" height="20" as="geometry">
            <mxRectangle width="19" height="20" as="alternateBounds" />
          </mxGeometry>
        </mxCell>
        <mxCell id="9NdUksTB03w-y8b6HVBz-165" style="shape=partialRectangle;html=1;whiteSpace=wrap;connectable=0;strokeColor=inherit;overflow=hidden;fillColor=none;top=0;left=0;bottom=0;right=0;pointerEvents=1;fontSize=16;" vertex="1" parent="9NdUksTB03w-y8b6HVBz-148">
          <mxGeometry x="312" width="20" height="20" as="geometry">
            <mxRectangle width="20" height="20" as="alternateBounds" />
          </mxGeometry>
        </mxCell>
        <mxCell id="9NdUksTB03w-y8b6HVBz-166" style="shape=partialRectangle;html=1;whiteSpace=wrap;connectable=0;strokeColor=inherit;overflow=hidden;fillColor=none;top=0;left=0;bottom=0;right=0;pointerEvents=1;fontSize=16;" vertex="1" parent="9NdUksTB03w-y8b6HVBz-148">
          <mxGeometry x="332" width="20" height="20" as="geometry">
            <mxRectangle width="20" height="20" as="alternateBounds" />
          </mxGeometry>
        </mxCell>
        <mxCell id="9NdUksTB03w-y8b6HVBz-167" style="shape=partialRectangle;html=1;whiteSpace=wrap;connectable=0;strokeColor=inherit;overflow=hidden;fillColor=none;top=0;left=0;bottom=0;right=0;pointerEvents=1;fontSize=16;" vertex="1" parent="9NdUksTB03w-y8b6HVBz-148">
          <mxGeometry x="352" width="19" height="20" as="geometry">
            <mxRectangle width="19" height="20" as="alternateBounds" />
          </mxGeometry>
        </mxCell>
        <mxCell id="9NdUksTB03w-y8b6HVBz-168" style="shape=partialRectangle;html=1;whiteSpace=wrap;connectable=0;strokeColor=inherit;overflow=hidden;fillColor=none;top=0;left=0;bottom=0;right=0;pointerEvents=1;fontSize=16;" vertex="1" parent="9NdUksTB03w-y8b6HVBz-148">
          <mxGeometry x="371" width="20" height="20" as="geometry">
            <mxRectangle width="20" height="20" as="alternateBounds" />
          </mxGeometry>
        </mxCell>
        <mxCell id="9NdUksTB03w-y8b6HVBz-169" value="" style="shape=tableRow;horizontal=0;startSize=0;swimlaneHead=0;swimlaneBody=0;strokeColor=inherit;top=0;left=0;bottom=0;right=0;collapsible=0;dropTarget=0;fillColor=none;points=[[0,0.5],[1,0.5]];portConstraint=eastwest;fontSize=16;" vertex="1" parent="9NdUksTB03w-y8b6HVBz-126">
          <mxGeometry y="40" width="391" height="20" as="geometry" />
        </mxCell>
        <mxCell id="9NdUksTB03w-y8b6HVBz-170" value="7" style="shape=partialRectangle;html=1;whiteSpace=wrap;connectable=0;strokeColor=inherit;overflow=hidden;fillColor=none;top=0;left=0;bottom=0;right=0;pointerEvents=1;fontSize=16;" vertex="1" parent="9NdUksTB03w-y8b6HVBz-169">
          <mxGeometry width="20" height="20" as="geometry">
            <mxRectangle width="20" height="20" as="alternateBounds" />
          </mxGeometry>
        </mxCell>
        <mxCell id="9NdUksTB03w-y8b6HVBz-171" value="4" style="shape=partialRectangle;html=1;whiteSpace=wrap;connectable=0;strokeColor=inherit;overflow=hidden;fillColor=none;top=0;left=0;bottom=0;right=0;pointerEvents=1;fontSize=16;" vertex="1" parent="9NdUksTB03w-y8b6HVBz-169">
          <mxGeometry x="20" width="18" height="20" as="geometry">
            <mxRectangle width="18" height="20" as="alternateBounds" />
          </mxGeometry>
        </mxCell>
        <mxCell id="9NdUksTB03w-y8b6HVBz-172" value="." style="shape=partialRectangle;html=1;whiteSpace=wrap;connectable=0;strokeColor=inherit;overflow=hidden;fillColor=none;top=0;left=0;bottom=0;right=0;pointerEvents=1;fontSize=16;" vertex="1" parent="9NdUksTB03w-y8b6HVBz-169">
          <mxGeometry x="38" width="20" height="20" as="geometry">
            <mxRectangle width="20" height="20" as="alternateBounds" />
          </mxGeometry>
        </mxCell>
        <mxCell id="9NdUksTB03w-y8b6HVBz-173" value="1" style="shape=partialRectangle;html=1;whiteSpace=wrap;connectable=0;strokeColor=inherit;overflow=hidden;fillColor=none;top=0;left=0;bottom=0;right=0;pointerEvents=1;fontSize=16;" vertex="1" parent="9NdUksTB03w-y8b6HVBz-169">
          <mxGeometry x="58" width="20" height="20" as="geometry">
            <mxRectangle width="20" height="20" as="alternateBounds" />
          </mxGeometry>
        </mxCell>
        <mxCell id="9NdUksTB03w-y8b6HVBz-174" value="2" style="shape=partialRectangle;html=1;whiteSpace=wrap;connectable=0;strokeColor=inherit;overflow=hidden;fillColor=none;top=0;left=0;bottom=0;right=0;pointerEvents=1;fontSize=16;" vertex="1" parent="9NdUksTB03w-y8b6HVBz-169">
          <mxGeometry x="78" width="20" height="20" as="geometry">
            <mxRectangle width="20" height="20" as="alternateBounds" />
          </mxGeometry>
        </mxCell>
        <mxCell id="9NdUksTB03w-y8b6HVBz-175" value="3" style="shape=partialRectangle;html=1;whiteSpace=wrap;connectable=0;strokeColor=inherit;overflow=hidden;fillColor=none;top=0;left=0;bottom=0;right=0;pointerEvents=1;fontSize=16;" vertex="1" parent="9NdUksTB03w-y8b6HVBz-169">
          <mxGeometry x="98" width="20" height="20" as="geometry">
            <mxRectangle width="20" height="20" as="alternateBounds" />
          </mxGeometry>
        </mxCell>
        <mxCell id="9NdUksTB03w-y8b6HVBz-176" value="4" style="shape=partialRectangle;html=1;whiteSpace=wrap;connectable=0;strokeColor=inherit;overflow=hidden;fillColor=none;top=0;left=0;bottom=0;right=0;pointerEvents=1;fontSize=16;" vertex="1" parent="9NdUksTB03w-y8b6HVBz-169">
          <mxGeometry x="118" width="19" height="20" as="geometry">
            <mxRectangle width="19" height="20" as="alternateBounds" />
          </mxGeometry>
        </mxCell>
        <mxCell id="9NdUksTB03w-y8b6HVBz-177" value="5" style="shape=partialRectangle;html=1;whiteSpace=wrap;connectable=0;strokeColor=inherit;overflow=hidden;fillColor=none;top=0;left=0;bottom=0;right=0;pointerEvents=1;fontSize=16;" vertex="1" parent="9NdUksTB03w-y8b6HVBz-169">
          <mxGeometry x="137" width="20" height="20" as="geometry">
            <mxRectangle width="20" height="20" as="alternateBounds" />
          </mxGeometry>
        </mxCell>
        <mxCell id="9NdUksTB03w-y8b6HVBz-178" value="6" style="shape=partialRectangle;html=1;whiteSpace=wrap;connectable=0;strokeColor=inherit;overflow=hidden;fillColor=none;top=0;left=0;bottom=0;right=0;pointerEvents=1;fontSize=16;" vertex="1" parent="9NdUksTB03w-y8b6HVBz-169">
          <mxGeometry x="157" width="19" height="20" as="geometry">
            <mxRectangle width="19" height="20" as="alternateBounds" />
          </mxGeometry>
        </mxCell>
        <mxCell id="9NdUksTB03w-y8b6HVBz-179" value="N" style="shape=partialRectangle;html=1;whiteSpace=wrap;connectable=0;strokeColor=inherit;overflow=hidden;fillColor=none;top=0;left=0;bottom=0;right=0;pointerEvents=1;fontSize=16;" vertex="1" parent="9NdUksTB03w-y8b6HVBz-169">
          <mxGeometry x="176" width="20" height="20" as="geometry">
            <mxRectangle width="20" height="20" as="alternateBounds" />
          </mxGeometry>
        </mxCell>
        <mxCell id="9NdUksTB03w-y8b6HVBz-180" value="5" style="shape=partialRectangle;html=1;whiteSpace=wrap;connectable=0;strokeColor=inherit;overflow=hidden;fillColor=none;top=0;left=0;bottom=0;right=0;pointerEvents=1;fontSize=16;" vertex="1" parent="9NdUksTB03w-y8b6HVBz-169">
          <mxGeometry x="196" width="19" height="20" as="geometry">
            <mxRectangle width="19" height="20" as="alternateBounds" />
          </mxGeometry>
        </mxCell>
        <mxCell id="9NdUksTB03w-y8b6HVBz-181" value="0" style="shape=partialRectangle;html=1;whiteSpace=wrap;connectable=0;strokeColor=inherit;overflow=hidden;fillColor=none;top=0;left=0;bottom=0;right=0;pointerEvents=1;fontSize=16;" vertex="1" parent="9NdUksTB03w-y8b6HVBz-169">
          <mxGeometry x="215" width="20" height="20" as="geometry">
            <mxRectangle width="20" height="20" as="alternateBounds" />
          </mxGeometry>
        </mxCell>
        <mxCell id="9NdUksTB03w-y8b6HVBz-182" value="." style="shape=partialRectangle;html=1;whiteSpace=wrap;connectable=0;strokeColor=inherit;overflow=hidden;fillColor=none;top=0;left=0;bottom=0;right=0;pointerEvents=1;fontSize=16;" vertex="1" parent="9NdUksTB03w-y8b6HVBz-169">
          <mxGeometry x="235" width="19" height="20" as="geometry">
            <mxRectangle width="19" height="20" as="alternateBounds" />
          </mxGeometry>
        </mxCell>
        <mxCell id="9NdUksTB03w-y8b6HVBz-183" value="1" style="shape=partialRectangle;html=1;whiteSpace=wrap;connectable=0;strokeColor=inherit;overflow=hidden;fillColor=none;top=0;left=0;bottom=0;right=0;pointerEvents=1;fontSize=16;" vertex="1" parent="9NdUksTB03w-y8b6HVBz-169">
          <mxGeometry x="254" width="20" height="20" as="geometry">
            <mxRectangle width="20" height="20" as="alternateBounds" />
          </mxGeometry>
        </mxCell>
        <mxCell id="9NdUksTB03w-y8b6HVBz-184" value="2" style="shape=partialRectangle;html=1;whiteSpace=wrap;connectable=0;strokeColor=inherit;overflow=hidden;fillColor=none;top=0;left=0;bottom=0;right=0;pointerEvents=1;fontSize=16;" vertex="1" parent="9NdUksTB03w-y8b6HVBz-169">
          <mxGeometry x="274" width="19" height="20" as="geometry">
            <mxRectangle width="19" height="20" as="alternateBounds" />
          </mxGeometry>
        </mxCell>
        <mxCell id="9NdUksTB03w-y8b6HVBz-185" value="3" style="shape=partialRectangle;html=1;whiteSpace=wrap;connectable=0;strokeColor=inherit;overflow=hidden;fillColor=none;top=0;left=0;bottom=0;right=0;pointerEvents=1;fontSize=16;" vertex="1" parent="9NdUksTB03w-y8b6HVBz-169">
          <mxGeometry x="293" width="19" height="20" as="geometry">
            <mxRectangle width="19" height="20" as="alternateBounds" />
          </mxGeometry>
        </mxCell>
        <mxCell id="9NdUksTB03w-y8b6HVBz-186" value="4" style="shape=partialRectangle;html=1;whiteSpace=wrap;connectable=0;strokeColor=inherit;overflow=hidden;fillColor=none;top=0;left=0;bottom=0;right=0;pointerEvents=1;fontSize=16;" vertex="1" parent="9NdUksTB03w-y8b6HVBz-169">
          <mxGeometry x="312" width="20" height="20" as="geometry">
            <mxRectangle width="20" height="20" as="alternateBounds" />
          </mxGeometry>
        </mxCell>
        <mxCell id="9NdUksTB03w-y8b6HVBz-187" value="5" style="shape=partialRectangle;html=1;whiteSpace=wrap;connectable=0;strokeColor=inherit;overflow=hidden;fillColor=none;top=0;left=0;bottom=0;right=0;pointerEvents=1;fontSize=16;" vertex="1" parent="9NdUksTB03w-y8b6HVBz-169">
          <mxGeometry x="332" width="20" height="20" as="geometry">
            <mxRectangle width="20" height="20" as="alternateBounds" />
          </mxGeometry>
        </mxCell>
        <mxCell id="9NdUksTB03w-y8b6HVBz-188" value="6" style="shape=partialRectangle;html=1;whiteSpace=wrap;connectable=0;strokeColor=inherit;overflow=hidden;fillColor=none;top=0;left=0;bottom=0;right=0;pointerEvents=1;fontSize=16;" vertex="1" parent="9NdUksTB03w-y8b6HVBz-169">
          <mxGeometry x="352" width="19" height="20" as="geometry">
            <mxRectangle width="19" height="20" as="alternateBounds" />
          </mxGeometry>
        </mxCell>
        <mxCell id="9NdUksTB03w-y8b6HVBz-189" value="W" style="shape=partialRectangle;html=1;whiteSpace=wrap;connectable=0;strokeColor=inherit;overflow=hidden;fillColor=none;top=0;left=0;bottom=0;right=0;pointerEvents=1;fontSize=16;" vertex="1" parent="9NdUksTB03w-y8b6HVBz-169">
          <mxGeometry x="371" width="20" height="20" as="geometry">
            <mxRectangle width="20" height="20" as="alternateBounds" />
          </mxGeometry>
        </mxCell>
        <mxCell id="9NdUksTB03w-y8b6HVBz-190" style="shape=tableRow;horizontal=0;startSize=0;swimlaneHead=0;swimlaneBody=0;strokeColor=inherit;top=0;left=0;bottom=0;right=0;collapsible=0;dropTarget=0;fillColor=none;points=[[0,0.5],[1,0.5]];portConstraint=eastwest;fontSize=16;" vertex="1" parent="9NdUksTB03w-y8b6HVBz-126">
          <mxGeometry y="60" width="391" height="20" as="geometry" />
        </mxCell>
        <mxCell id="9NdUksTB03w-y8b6HVBz-191" value="-" style="shape=partialRectangle;html=1;whiteSpace=wrap;connectable=0;strokeColor=inherit;overflow=hidden;fillColor=none;top=0;left=0;bottom=0;right=0;pointerEvents=1;fontSize=16;" vertex="1" parent="9NdUksTB03w-y8b6HVBz-190">
          <mxGeometry width="20" height="20" as="geometry">
            <mxRectangle width="20" height="20" as="alternateBounds" />
          </mxGeometry>
        </mxCell>
        <mxCell id="9NdUksTB03w-y8b6HVBz-192" value="-" style="shape=partialRectangle;html=1;whiteSpace=wrap;connectable=0;strokeColor=inherit;overflow=hidden;fillColor=none;top=0;left=0;bottom=0;right=0;pointerEvents=1;fontSize=16;" vertex="1" parent="9NdUksTB03w-y8b6HVBz-190">
          <mxGeometry x="20" width="18" height="20" as="geometry">
            <mxRectangle width="18" height="20" as="alternateBounds" />
          </mxGeometry>
        </mxCell>
        <mxCell id="9NdUksTB03w-y8b6HVBz-193" value="-" style="shape=partialRectangle;html=1;whiteSpace=wrap;connectable=0;strokeColor=inherit;overflow=hidden;fillColor=none;top=0;left=0;bottom=0;right=0;pointerEvents=1;fontSize=16;" vertex="1" parent="9NdUksTB03w-y8b6HVBz-190">
          <mxGeometry x="38" width="20" height="20" as="geometry">
            <mxRectangle width="20" height="20" as="alternateBounds" />
          </mxGeometry>
        </mxCell>
        <mxCell id="9NdUksTB03w-y8b6HVBz-194" value="-" style="shape=partialRectangle;html=1;whiteSpace=wrap;connectable=0;strokeColor=inherit;overflow=hidden;fillColor=none;top=0;left=0;bottom=0;right=0;pointerEvents=1;fontSize=16;" vertex="1" parent="9NdUksTB03w-y8b6HVBz-190">
          <mxGeometry x="58" width="20" height="20" as="geometry">
            <mxRectangle width="20" height="20" as="alternateBounds" />
          </mxGeometry>
        </mxCell>
        <mxCell id="9NdUksTB03w-y8b6HVBz-195" value="N" style="shape=partialRectangle;html=1;whiteSpace=wrap;connectable=0;strokeColor=inherit;overflow=hidden;fillColor=none;top=0;left=0;bottom=0;right=0;pointerEvents=1;fontSize=16;" vertex="1" parent="9NdUksTB03w-y8b6HVBz-190">
          <mxGeometry x="78" width="20" height="20" as="geometry">
            <mxRectangle width="20" height="20" as="alternateBounds" />
          </mxGeometry>
        </mxCell>
        <mxCell id="9NdUksTB03w-y8b6HVBz-196" value="-" style="shape=partialRectangle;html=1;whiteSpace=wrap;connectable=0;strokeColor=inherit;overflow=hidden;fillColor=none;top=0;left=0;bottom=0;right=0;pointerEvents=1;fontSize=16;" vertex="1" parent="9NdUksTB03w-y8b6HVBz-190">
          <mxGeometry x="98" width="20" height="20" as="geometry">
            <mxRectangle width="20" height="20" as="alternateBounds" />
          </mxGeometry>
        </mxCell>
        <mxCell id="9NdUksTB03w-y8b6HVBz-197" value="-" style="shape=partialRectangle;html=1;whiteSpace=wrap;connectable=0;strokeColor=inherit;overflow=hidden;fillColor=none;top=0;left=0;bottom=0;right=0;pointerEvents=1;fontSize=16;" vertex="1" parent="9NdUksTB03w-y8b6HVBz-190">
          <mxGeometry x="118" width="19" height="20" as="geometry">
            <mxRectangle width="19" height="20" as="alternateBounds" />
          </mxGeometry>
        </mxCell>
        <mxCell id="9NdUksTB03w-y8b6HVBz-198" value="-" style="shape=partialRectangle;html=1;whiteSpace=wrap;connectable=0;strokeColor=inherit;overflow=hidden;fillColor=none;top=0;left=0;bottom=0;right=0;pointerEvents=1;fontSize=16;" vertex="1" parent="9NdUksTB03w-y8b6HVBz-190">
          <mxGeometry x="137" width="20" height="20" as="geometry">
            <mxRectangle width="20" height="20" as="alternateBounds" />
          </mxGeometry>
        </mxCell>
        <mxCell id="9NdUksTB03w-y8b6HVBz-199" value="-" style="shape=partialRectangle;html=1;whiteSpace=wrap;connectable=0;strokeColor=inherit;overflow=hidden;fillColor=none;top=0;left=0;bottom=0;right=0;pointerEvents=1;fontSize=16;" vertex="1" parent="9NdUksTB03w-y8b6HVBz-190">
          <mxGeometry x="157" width="19" height="20" as="geometry">
            <mxRectangle width="19" height="20" as="alternateBounds" />
          </mxGeometry>
        </mxCell>
        <mxCell id="9NdUksTB03w-y8b6HVBz-200" value="-" style="shape=partialRectangle;html=1;whiteSpace=wrap;connectable=0;strokeColor=inherit;overflow=hidden;fillColor=none;top=0;left=0;bottom=0;right=0;pointerEvents=1;fontSize=16;" vertex="1" parent="9NdUksTB03w-y8b6HVBz-190">
          <mxGeometry x="176" width="20" height="20" as="geometry">
            <mxRectangle width="20" height="20" as="alternateBounds" />
          </mxGeometry>
        </mxCell>
        <mxCell id="9NdUksTB03w-y8b6HVBz-201" value="-" style="shape=partialRectangle;html=1;whiteSpace=wrap;connectable=0;strokeColor=inherit;overflow=hidden;fillColor=none;top=0;left=0;bottom=0;right=0;pointerEvents=1;fontSize=16;" vertex="1" parent="9NdUksTB03w-y8b6HVBz-190">
          <mxGeometry x="196" width="19" height="20" as="geometry">
            <mxRectangle width="19" height="20" as="alternateBounds" />
          </mxGeometry>
        </mxCell>
        <mxCell id="9NdUksTB03w-y8b6HVBz-202" value="-" style="shape=partialRectangle;html=1;whiteSpace=wrap;connectable=0;strokeColor=inherit;overflow=hidden;fillColor=none;top=0;left=0;bottom=0;right=0;pointerEvents=1;fontSize=16;" vertex="1" parent="9NdUksTB03w-y8b6HVBz-190">
          <mxGeometry x="215" width="20" height="20" as="geometry">
            <mxRectangle width="20" height="20" as="alternateBounds" />
          </mxGeometry>
        </mxCell>
        <mxCell id="9NdUksTB03w-y8b6HVBz-203" value="-" style="shape=partialRectangle;html=1;whiteSpace=wrap;connectable=0;strokeColor=inherit;overflow=hidden;fillColor=none;top=0;left=0;bottom=0;right=0;pointerEvents=1;fontSize=16;" vertex="1" parent="9NdUksTB03w-y8b6HVBz-190">
          <mxGeometry x="235" width="19" height="20" as="geometry">
            <mxRectangle width="19" height="20" as="alternateBounds" />
          </mxGeometry>
        </mxCell>
        <mxCell id="9NdUksTB03w-y8b6HVBz-204" value="-" style="shape=partialRectangle;html=1;whiteSpace=wrap;connectable=0;strokeColor=inherit;overflow=hidden;fillColor=none;top=0;left=0;bottom=0;right=0;pointerEvents=1;fontSize=16;" vertex="1" parent="9NdUksTB03w-y8b6HVBz-190">
          <mxGeometry x="254" width="20" height="20" as="geometry">
            <mxRectangle width="20" height="20" as="alternateBounds" />
          </mxGeometry>
        </mxCell>
        <mxCell id="9NdUksTB03w-y8b6HVBz-205" value="E" style="shape=partialRectangle;html=1;whiteSpace=wrap;connectable=0;strokeColor=inherit;overflow=hidden;fillColor=none;top=0;left=0;bottom=0;right=0;pointerEvents=1;fontSize=16;" vertex="1" parent="9NdUksTB03w-y8b6HVBz-190">
          <mxGeometry x="274" width="19" height="20" as="geometry">
            <mxRectangle width="19" height="20" as="alternateBounds" />
          </mxGeometry>
        </mxCell>
        <mxCell id="9NdUksTB03w-y8b6HVBz-206" value="-" style="shape=partialRectangle;html=1;whiteSpace=wrap;connectable=0;strokeColor=inherit;overflow=hidden;fillColor=none;top=0;left=0;bottom=0;right=0;pointerEvents=1;fontSize=16;" vertex="1" parent="9NdUksTB03w-y8b6HVBz-190">
          <mxGeometry x="293" width="19" height="20" as="geometry">
            <mxRectangle width="19" height="20" as="alternateBounds" />
          </mxGeometry>
        </mxCell>
        <mxCell id="9NdUksTB03w-y8b6HVBz-207" value="-" style="shape=partialRectangle;html=1;whiteSpace=wrap;connectable=0;strokeColor=inherit;overflow=hidden;fillColor=none;top=0;left=0;bottom=0;right=0;pointerEvents=1;fontSize=16;" vertex="1" parent="9NdUksTB03w-y8b6HVBz-190">
          <mxGeometry x="312" width="20" height="20" as="geometry">
            <mxRectangle width="20" height="20" as="alternateBounds" />
          </mxGeometry>
        </mxCell>
        <mxCell id="9NdUksTB03w-y8b6HVBz-208" value="|" style="shape=partialRectangle;html=1;whiteSpace=wrap;connectable=0;strokeColor=inherit;overflow=hidden;fillColor=none;top=0;left=0;bottom=0;right=0;pointerEvents=1;fontSize=16;" vertex="1" parent="9NdUksTB03w-y8b6HVBz-190">
          <mxGeometry x="332" width="20" height="20" as="geometry">
            <mxRectangle width="20" height="20" as="alternateBounds" />
          </mxGeometry>
        </mxCell>
        <mxCell id="9NdUksTB03w-y8b6HVBz-209" value="-" style="shape=partialRectangle;html=1;whiteSpace=wrap;connectable=0;strokeColor=inherit;overflow=hidden;fillColor=none;top=0;left=0;bottom=0;right=0;pointerEvents=1;fontSize=16;" vertex="1" parent="9NdUksTB03w-y8b6HVBz-190">
          <mxGeometry x="352" width="19" height="20" as="geometry">
            <mxRectangle width="19" height="20" as="alternateBounds" />
          </mxGeometry>
        </mxCell>
        <mxCell id="9NdUksTB03w-y8b6HVBz-210" value="-" style="shape=partialRectangle;html=1;whiteSpace=wrap;connectable=0;strokeColor=inherit;overflow=hidden;fillColor=none;top=0;left=0;bottom=0;right=0;pointerEvents=1;fontSize=16;" vertex="1" parent="9NdUksTB03w-y8b6HVBz-190">
          <mxGeometry x="371" width="20" height="20" as="geometry">
            <mxRectangle width="20" height="20" as="alternateBounds" />
          </mxGeometry>
        </mxCell>
        <mxCell id="9NdUksTB03w-y8b6HVBz-212" value="&lt;b&gt;Mode Yagi&lt;/b&gt;" style="text;html=1;align=center;verticalAlign=middle;resizable=0;points=[];autosize=1;strokeColor=none;fillColor=none;" vertex="1" parent="1">
          <mxGeometry x="170.5" width="80" height="30" as="geometry" />
        </mxCell>
        <mxCell id="9NdUksTB03w-y8b6HVBz-213" value="Channel (0 à 9)" style="text;html=1;align=center;verticalAlign=middle;resizable=0;points=[];autosize=1;strokeColor=none;fillColor=none;" vertex="1" parent="1">
          <mxGeometry width="110" height="30" as="geometry" />
        </mxCell>
        <mxCell id="9NdUksTB03w-y8b6HVBz-214" value="Fréquence" style="text;html=1;align=center;verticalAlign=middle;resizable=0;points=[];autosize=1;strokeColor=none;fillColor=none;" vertex="1" parent="1">
          <mxGeometry x="326" width="80" height="30" as="geometry" />
        </mxCell>
        <mxCell id="9NdUksTB03w-y8b6HVBz-215" value="&lt;font style=&quot;font-size: 12px;&quot;&gt;Valeur RSSI&lt;/font&gt;" style="text;html=1;align=center;verticalAlign=middle;resizable=0;points=[];autosize=1;strokeColor=none;fillColor=none;" vertex="1" parent="1">
          <mxGeometry x="396" y="50" width="90" height="30" as="geometry" />
        </mxCell>
        <mxCell id="9NdUksTB03w-y8b6HVBz-216" value="Coords GPS (6 décimales)" style="text;html=1;align=center;verticalAlign=middle;resizable=0;points=[];autosize=1;strokeColor=none;fillColor=none;" vertex="1" parent="1">
          <mxGeometry x="396" y="70" width="170" height="30" as="geometry" />
        </mxCell>
        <mxCell id="9NdUksTB03w-y8b6HVBz-217" value="Gauge visuelle de puissance" style="text;html=1;align=center;verticalAlign=middle;resizable=0;points=[];autosize=1;strokeColor=none;fillColor=none;" vertex="1" parent="1">
          <mxGeometry x="396" y="90" width="180" height="30" as="geometry" />
        </mxCell>
        <mxCell id="9NdUksTB03w-y8b6HVBz-221" value="&lt;font style=&quot;font-size: 12px;&quot;&gt;Valeur RSSI&lt;/font&gt;" style="text;html=1;align=center;verticalAlign=middle;resizable=0;points=[];autosize=1;strokeColor=none;fillColor=none;" vertex="1" parent="1">
          <mxGeometry x="396" y="190" width="90" height="30" as="geometry" />
        </mxCell>
        <mxCell id="9NdUksTB03w-y8b6HVBz-222" value="Coords GPS (6 décimales)" style="text;html=1;align=center;verticalAlign=middle;resizable=0;points=[];autosize=1;strokeColor=none;fillColor=none;" vertex="1" parent="1">
          <mxGeometry x="396" y="210" width="170" height="30" as="geometry" />
        </mxCell>
        <mxCell id="9NdUksTB03w-y8b6HVBz-223" value="Boussole: | est le signal, 180deg" style="text;html=1;align=center;verticalAlign=middle;resizable=0;points=[];autosize=1;strokeColor=none;fillColor=none;" vertex="1" parent="1">
          <mxGeometry x="396" y="230" width="200" height="30" as="geometry" />
        </mxCell>
        <mxCell id="9NdUksTB03w-y8b6HVBz-224" value="Fréquence" style="text;html=1;align=center;verticalAlign=middle;resizable=0;points=[];autosize=1;strokeColor=none;fillColor=none;" vertex="1" parent="1">
          <mxGeometry x="326" y="140" width="80" height="30" as="geometry" />
        </mxCell>
        <mxCell id="9NdUksTB03w-y8b6HVBz-225" value="Channel (0 à 9)" style="text;html=1;align=center;verticalAlign=middle;resizable=0;points=[];autosize=1;strokeColor=none;fillColor=none;" vertex="1" parent="1">
          <mxGeometry y="140" width="110" height="30" as="geometry" />
        </mxCell>
        <mxCell id="9NdUksTB03w-y8b6HVBz-226" value="&lt;b&gt;Mode Boussole&lt;/b&gt;" style="text;html=1;align=center;verticalAlign=middle;resizable=0;points=[];autosize=1;strokeColor=none;fillColor=none;" vertex="1" parent="1">
          <mxGeometry x="155.5" y="140" width="110" height="30" as="geometry" />
        </mxCell>
        <mxCell id="9NdUksTB03w-y8b6HVBz-227" value="" style="ellipse;whiteSpace=wrap;html=1;aspect=fixed;" vertex="1" parent="1">
          <mxGeometry x="640" y="110" width="20" height="20" as="geometry" />
        </mxCell>
        <mxCell id="9NdUksTB03w-y8b6HVBz-228" value="" style="ellipse;whiteSpace=wrap;html=1;aspect=fixed;" vertex="1" parent="1">
          <mxGeometry x="690" y="110" width="20" height="20" as="geometry" />
        </mxCell>
        <mxCell id="9NdUksTB03w-y8b6HVBz-229" value="" style="ellipse;whiteSpace=wrap;html=1;aspect=fixed;" vertex="1" parent="1">
          <mxGeometry x="640" y="160" width="20" height="20" as="geometry" />
        </mxCell>
        <mxCell id="9NdUksTB03w-y8b6HVBz-230" value="" style="ellipse;whiteSpace=wrap;html=1;aspect=fixed;" vertex="1" parent="1">
          <mxGeometry x="690" y="160" width="20" height="20" as="geometry" />
        </mxCell>
        <mxCell id="9NdUksTB03w-y8b6HVBz-231" value="" style="ellipse;whiteSpace=wrap;html=1;aspect=fixed;" vertex="1" parent="1">
          <mxGeometry x="740" y="130" width="30" height="30" as="geometry" />
        </mxCell>
        <mxCell id="9NdUksTB03w-y8b6HVBz-232" value="freq" style="text;html=1;align=center;verticalAlign=middle;resizable=0;points=[];autosize=1;strokeColor=none;fillColor=none;" vertex="1" parent="1">
          <mxGeometry x="630" y="80" width="40" height="30" as="geometry" />
        </mxCell>
        <mxCell id="9NdUksTB03w-y8b6HVBz-233" value="mode" style="text;html=1;align=center;verticalAlign=middle;resizable=0;points=[];autosize=1;strokeColor=none;fillColor=none;" vertex="1" parent="1">
          <mxGeometry x="675" y="80" width="50" height="30" as="geometry" />
        </mxCell>
        <mxCell id="9NdUksTB03w-y8b6HVBz-234" value="&amp;lt;-" style="text;html=1;align=center;verticalAlign=middle;resizable=0;points=[];autosize=1;strokeColor=none;fillColor=none;" vertex="1" parent="1">
          <mxGeometry x="635" y="180" width="30" height="30" as="geometry" />
        </mxCell>
        <mxCell id="9NdUksTB03w-y8b6HVBz-235" value="-&amp;gt;" style="text;html=1;align=center;verticalAlign=middle;resizable=0;points=[];autosize=1;strokeColor=none;fillColor=none;" vertex="1" parent="1">
          <mxGeometry x="685" y="180" width="30" height="30" as="geometry" />
        </mxCell>
        <mxCell id="9NdUksTB03w-y8b6HVBz-236" value="vol" style="text;html=1;align=center;verticalAlign=middle;resizable=0;points=[];autosize=1;strokeColor=none;fillColor=none;" vertex="1" parent="1">
          <mxGeometry x="735" y="155" width="40" height="30" as="geometry" />
        </mxCell>
        <mxCell id="9NdUksTB03w-y8b6HVBz-237" value="&lt;b&gt;Boutons&lt;/b&gt;" style="text;html=1;align=center;verticalAlign=middle;resizable=0;points=[];autosize=1;strokeColor=none;fillColor=none;" vertex="1" parent="1">
          <mxGeometry x="665" y="55" width="70" height="30" as="geometry" />
        </mxCell>
        <mxCell id="9NdUksTB03w-y8b6HVBz-238" value="" style="rounded=1;whiteSpace=wrap;html=1;fillColor=#f8cecc;strokeColor=#b85450;" vertex="1" parent="1">
          <mxGeometry x="360" y="280" width="150" height="130" as="geometry" />
        </mxCell>
        <mxCell id="9NdUksTB03w-y8b6HVBz-239" value="" style="rounded=0;whiteSpace=wrap;html=1;fillColor=#1ba1e2;strokeColor=#006EAF;fontColor=#ffffff;" vertex="1" parent="1">
          <mxGeometry x="375" y="300" width="120" height="60" as="geometry" />
        </mxCell>
        <mxCell id="9NdUksTB03w-y8b6HVBz-240" value="" style="ellipse;whiteSpace=wrap;html=1;aspect=fixed;" vertex="1" parent="1">
          <mxGeometry x="401" y="370" width="10" height="10" as="geometry" />
        </mxCell>
        <mxCell id="9NdUksTB03w-y8b6HVBz-241" value="" style="ellipse;whiteSpace=wrap;html=1;aspect=fixed;" vertex="1" parent="1">
          <mxGeometry x="401" y="390" width="10" height="10" as="geometry" />
        </mxCell>
        <mxCell id="9NdUksTB03w-y8b6HVBz-242" value="" style="ellipse;whiteSpace=wrap;html=1;aspect=fixed;" vertex="1" parent="1">
          <mxGeometry x="416" y="370" width="10" height="10" as="geometry" />
        </mxCell>
        <mxCell id="9NdUksTB03w-y8b6HVBz-243" value="" style="ellipse;whiteSpace=wrap;html=1;aspect=fixed;" vertex="1" parent="1">
          <mxGeometry x="416" y="390" width="10" height="10" as="geometry" />
        </mxCell>
        <mxCell id="9NdUksTB03w-y8b6HVBz-244" value="" style="ellipse;whiteSpace=wrap;html=1;aspect=fixed;" vertex="1" parent="1">
          <mxGeometry x="442" y="380" width="10" height="10" as="geometry" />
        </mxCell>
        <mxCell id="9NdUksTB03w-y8b6HVBz-245" value="" style="rounded=0;whiteSpace=wrap;html=1;fillColor=#fff2cc;strokeColor=#d6b656;" vertex="1" parent="1">
          <mxGeometry x="350" y="380" width="10" height="10" as="geometry" />
        </mxCell>
        <mxCell id="9NdUksTB03w-y8b6HVBz-246" value="" style="rounded=0;whiteSpace=wrap;html=1;" vertex="1" parent="1">
          <mxGeometry x="461" y="375" width="10" height="20" as="geometry" />
        </mxCell>
        <mxCell id="9NdUksTB03w-y8b6HVBz-247" value="SMA" style="text;html=1;align=center;verticalAlign=middle;resizable=0;points=[];autosize=1;strokeColor=none;fillColor=none;" vertex="1" parent="1">
          <mxGeometry x="296" y="418" width="50" height="30" as="geometry" />
        </mxCell>
        <mxCell id="9NdUksTB03w-y8b6HVBz-248" value="Boutons&lt;div&gt;interface&lt;/div&gt;" style="text;html=1;align=center;verticalAlign=middle;resizable=0;points=[];autosize=1;strokeColor=none;fillColor=none;" vertex="1" parent="1">
          <mxGeometry x="356" y="418" width="70" height="40" as="geometry" />
        </mxCell>
        <mxCell id="9NdUksTB03w-y8b6HVBz-249" value="on/off" style="text;html=1;align=center;verticalAlign=middle;resizable=0;points=[];autosize=1;strokeColor=none;fillColor=none;" vertex="1" parent="1">
          <mxGeometry x="507" y="410" width="50" height="30" as="geometry" />
        </mxCell>
        <mxCell id="9NdUksTB03w-y8b6HVBz-250" value="volume" style="text;html=1;align=center;verticalAlign=middle;resizable=0;points=[];autosize=1;strokeColor=none;fillColor=none;" vertex="1" parent="1">
          <mxGeometry x="426" y="423" width="60" height="30" as="geometry" />
        </mxCell>
        <mxCell id="9NdUksTB03w-y8b6HVBz-251" value="" style="endArrow=none;html=1;rounded=0;entryX=-0.337;entryY=1.425;entryDx=0;entryDy=0;entryPerimeter=0;dashed=1;" edge="1" parent="1" target="9NdUksTB03w-y8b6HVBz-245">
          <mxGeometry width="50" height="50" relative="1" as="geometry">
            <mxPoint x="325" y="425" as="sourcePoint" />
            <mxPoint x="375" y="375" as="targetPoint" />
          </mxGeometry>
        </mxCell>
        <mxCell id="9NdUksTB03w-y8b6HVBz-253" value="" style="endArrow=none;html=1;rounded=0;entryX=1;entryY=0.676;entryDx=0;entryDy=0;entryPerimeter=0;dashed=1;" edge="1" parent="1">
          <mxGeometry width="50" height="50" relative="1" as="geometry">
            <mxPoint x="401" y="420" as="sourcePoint" />
            <mxPoint x="414.5" y="400" as="targetPoint" />
          </mxGeometry>
        </mxCell>
        <mxCell id="9NdUksTB03w-y8b6HVBz-254" value="" style="endArrow=none;html=1;rounded=0;dashed=1;" edge="1" parent="1" source="9NdUksTB03w-y8b6HVBz-250">
          <mxGeometry width="50" height="50" relative="1" as="geometry">
            <mxPoint x="396" y="445" as="sourcePoint" />
            <mxPoint x="446" y="395" as="targetPoint" />
          </mxGeometry>
        </mxCell>
        <mxCell id="9NdUksTB03w-y8b6HVBz-255" value="" style="endArrow=none;html=1;rounded=0;dashed=1;" edge="1" parent="1" target="9NdUksTB03w-y8b6HVBz-249">
          <mxGeometry width="50" height="50" relative="1" as="geometry">
            <mxPoint x="482" y="390" as="sourcePoint" />
            <mxPoint x="532" y="340" as="targetPoint" />
          </mxGeometry>
        </mxCell>
        <mxCell id="9NdUksTB03w-y8b6HVBz-257" value="LCD 20x4" style="text;html=1;align=center;verticalAlign=middle;resizable=0;points=[];autosize=1;strokeColor=none;fillColor=none;" vertex="1" parent="1">
          <mxGeometry x="521" y="313" width="80" height="30" as="geometry" />
        </mxCell>
        <mxCell id="9NdUksTB03w-y8b6HVBz-258" value="" style="endArrow=none;dashed=1;html=1;rounded=0;entryX=0.038;entryY=0.552;entryDx=0;entryDy=0;entryPerimeter=0;" edge="1" parent="1" target="9NdUksTB03w-y8b6HVBz-257">
          <mxGeometry width="50" height="50" relative="1" as="geometry">
            <mxPoint x="495" y="340" as="sourcePoint" />
            <mxPoint x="545" y="290" as="targetPoint" />
          </mxGeometry>
        </mxCell>
        <mxCell id="9NdUksTB03w-y8b6HVBz-259" value="* freq permet de changer&lt;div&gt;la fréquence d&#39;un channel&lt;/div&gt;" style="text;html=1;align=left;verticalAlign=middle;resizable=0;points=[];autosize=1;strokeColor=none;fillColor=none;" vertex="1" parent="1">
          <mxGeometry x="607" y="200" width="160" height="40" as="geometry" />
        </mxCell>
        <mxCell id="9NdUksTB03w-y8b6HVBz-260" value="* mode change entre le mode&lt;div&gt;Yagi et Boussole&lt;/div&gt;" style="text;html=1;align=left;verticalAlign=middle;resizable=0;points=[];autosize=1;strokeColor=none;fillColor=none;" vertex="1" parent="1">
          <mxGeometry x="607" y="238" width="180" height="40" as="geometry" />
        </mxCell>
        <mxCell id="9NdUksTB03w-y8b6HVBz-261" value="* les flèches changent les channels et&lt;div&gt;&lt;span style=&quot;background-color: initial;&quot;&gt;permettent d&#39;ajuster les fréquences&lt;/span&gt;&lt;/div&gt;" style="text;html=1;align=left;verticalAlign=middle;resizable=0;points=[];autosize=1;strokeColor=none;fillColor=none;" vertex="1" parent="1">
          <mxGeometry x="607" y="278" width="220" height="40" as="geometry" />
        </mxCell>
      </root>
    </mxGraphModel>
  </diagram>
</mxfile>
